<?xml version="1.0" encoding="UTF-8" standalone="no"?>
<!-- Created with Inkscape (http://www.inkscape.org/) -->

<svg
   xmlns:dc="http://purl.org/dc/elements/1.1/"
   xmlns:cc="http://creativecommons.org/ns#"
   xmlns:rdf="http://www.w3.org/1999/02/22-rdf-syntax-ns#"
   xmlns:svg="http://www.w3.org/2000/svg"
   xmlns="http://www.w3.org/2000/svg"
   xmlns:sodipodi="http://sodipodi.sourceforge.net/DTD/sodipodi-0.dtd"
   xmlns:inkscape="http://www.inkscape.org/namespaces/inkscape"
   version="1.1"
   id="svg2"
   width="22.702999"
   height="24.000315"
   viewBox="0 0 22.702999 24.000314"
   sodipodi:docname="cinar.svg"
   inkscape:version="0.92.3 (2405546, 2018-03-11)">
  <metadata
     id="metadata8">
    <rdf:RDF>
      <cc:Work
         rdf:about="">
        <dc:format>image/svg+xml</dc:format>
        <dc:type
           rdf:resource="http://purl.org/dc/dcmitype/StillImage" />
        <dc:title></dc:title>
      </cc:Work>
    </rdf:RDF>
  </metadata>
  <defs
     id="defs6" />
  <sodipodi:namedview
     pagecolor="#ffffff"
     bordercolor="#666666"
     borderopacity="1"
     objecttolerance="10"
     gridtolerance="10"
     guidetolerance="10"
     inkscape:pageopacity="0"
     inkscape:pageshadow="2"
     inkscape:window-width="1366"
     inkscape:window-height="717"
     id="namedview4"
     showgrid="false"
     inkscape:zoom="16.781029"
     inkscape:cx="11.351504"
     inkscape:cy="12.000154"
     inkscape:window-x="0"
     inkscape:window-y="0"
     inkscape:window-maximized="1"
     inkscape:current-layer="layer1"
     fit-margin-top="0"
     fit-margin-left="0"
     fit-margin-right="0"
     fit-margin-bottom="0" />
  <g
     inkscape:groupmode="layer"
     id="layer1"
     inkscape:label="Logo"
     style="display:inline"
     transform="translate(-151.98183,-160.66651)">
    <g
       id="g837"
       transform="matrix(0.06949898,0,0,0.06949898,151.98183,160.66651)">
      <path
         style="fill:#fdfdfd;stroke-width:1.33333337"
         d="M 0,172.66667 C 0,115.11111 0,57.555557 0,0 c 108.88889,0 217.77777,0 326.66666,0 0,115.11111 0,230.22223 0,345.33334 -108.88889,0 -217.77777,0 -326.66666,0 0,-57.55556 0,-115.11111 0,-172.66667 z"
         id="path853"
         inkscape:connector-curvature="0" />
      <path
         style="fill:#59a1cf;stroke-width:1.33333337"
         d="M 151.33333,341.74866 C 111.90317,336.63795 78.143988,320.01819 50.657442,292.18561 17.39635,258.50576 1.2433298,219.45335 1.2215337,172.66667 1.1992679,124.8716 19.145396,82.714635 53.455284,49.965192 67.421124,36.634531 78.5733,28.633249 93.999998,20.875824 118.10514,8.754386 143.22708,2.6615334 169.04728,2.6745269 c 47.84786,0.024079 89.45033,17.0188311 122.28723,49.9547651 10.98676,11.019889 27.35155,32.663762 27.33784,36.15669 -0.003,0.798956 -1.40254,2.089097 -3.10982,2.866982 -2.89927,1.320999 -3.57422,0.69719 -10.2274,-9.452646 C 296.37898,68.537197 275.90458,47.92565 262.11483,38.690526 178.6286,-17.221023 66.518619,13.61287 24.088965,104.15539 -5.0987779,166.44042 8.3930809,239.84527 57.975309,288.5201 c 22.918624,22.49919 52.953881,37.77051 86.691351,44.07791 16.9097,3.16136 47.00628,1.9743 64.35252,-2.53816 40.47493,-10.52916 74.83116,-34.36607 95.81995,-66.48144 3.44296,-5.26813 6.69189,-10.07767 7.21985,-10.68787 1.16365,-1.34491 6.60768,1.83488 6.60768,3.85944 0,2.1471 -12.32531,19.63416 -20.32873,28.84225 -19.02652,21.89038 -51.63911,42.47786 -79.84724,50.4055 -19.70715,5.53852 -49.26675,8.06981 -67.15736,5.75093 z m -4,-15.22665 C 99.111595,319.57311 54.464566,287.02946 31.878695,242.36599 20.496945,219.85863 15.794249,199.44491 15.821402,172.66363 15.849196,145.2517 20.492846,125.52079 32.536074,101.64291 54.862338,57.377025 100.07201,25.065579 148.76209,18.575936 166.70946,16.183826 193.61001,17.635327 210,21.880215 c 16.01576,4.147967 41.50353,16.405786 54.23051,26.081049 11.57503,8.799532 31.09438,29.602164 37.42574,39.886275 l 4.98957,8.104643 -3.36452,2.204521 c -1.85049,1.212487 -3.5176,1.973247 -3.70469,1.690576 -0.18708,-0.282669 -2.49226,-3.840092 -5.1226,-7.905384 C 267.72357,50.629 221.01592,25.404816 171.14729,25.35085 130.23815,25.306579 94.238958,40.444601 65.739243,69.675989 26.165247,110.26597 13.498082,165.95346 31.507233,220.16703 c 7.446781,22.41729 20.349062,42.42491 38.440843,59.61034 17.92752,17.02938 40.078284,29.36382 64.348784,35.832 11.61862,3.09641 15.5742,3.48117 36.3698,3.53769 21.29632,0.0579 24.49735,-0.25133 36.66667,-3.54188 36.00793,-9.73644 66.59373,-31.7798 87.32898,-62.93851 2.44007,-3.66667 4.62054,-6.89795 4.84548,-7.18061 0.22494,-0.28267 1.93391,0.48522 3.79772,1.70644 l 3.38874,2.22038 -6.91168,10.29357 c -28.57528,42.55718 -77.93491,68.66076 -128.82985,68.13097 -8.59067,-0.0894 -19.21939,-0.68136 -23.61939,-1.31541 z m 10,-33.89715 c 0,-1.29612 5.36448,-11.29152 6.06009,-11.29152 0.67156,0 2.0625,3.25787 3.8784,9.08408 0.8901,2.85581 0.75526,2.95543 -1.82196,1.34593 -2.23708,-1.39708 -3.30645,-1.41136 -5.44986,-0.0728 -1.46667,0.91595 -2.66667,1.33638 -2.66667,0.93428 z m 7.02352,-6.07089 c -0.5526,-2.11315 -0.99719,-2.35286 -1.85475,-1 -1.64248,2.59108 -1.42037,3.77937 0.7064,3.77937 1.24408,0 1.63056,-0.9354 1.14835,-2.77937 z m 9.96735,4.1127 c -2.00286,-6.99478 -1.28464,-9.33333 2.86648,-9.33333 4.08258,0 6.59837,3.41095 4.24877,5.76055 -0.86396,0.86396 -0.81692,2.27306 0.13724,4.11038 1.34273,2.58555 1.19593,2.56047 -1.95272,-0.33364 l -3.4046,-3.12937 -0.47036,3.12937 -0.47036,3.12938 z M 180,284.56891 c 0,-1.24165 -0.90716,-1.92184 -2.22284,-1.66666 -3.34503,0.64873 -3.80434,3.76442 -0.55494,3.76442 1.63778,0 2.77778,-0.86092 2.77778,-2.09776 z m -41.09695,4.93874 c -1.98219,-1.25676 -0.91,-10.26728 1.39095,-11.68934 0.77568,-0.4794 1.03326,0.2177 0.6213,1.68139 -0.38704,1.37517 -1.06125,3.75419 -1.49824,5.28671 -0.58224,2.04196 0.0133,3.1756 2.22755,4.24309 1.8382,0.88605 2.23859,1.48404 1.02205,1.52652 -1.1,0.0384 -2.79362,-0.43336 -3.76361,-1.04837 z m 50.75425,-0.38367 c -2.1064,-2.1064 -2.13662,-6.77799 -0.0573,-8.85731 1.88653,-1.88653 5.92588,-2.1125 6.98981,-0.39101 0.41096,0.66495 -0.34554,0.92323 -1.68112,0.57397 -3.23457,-0.84586 -6.02513,2.69946 -4.90433,6.23079 1.00804,3.17604 6.03595,3.25219 7.07313,0.10707 0.42574,-1.29095 -0.0632,-1.61706 -1.56222,-1.04184 -1.20004,0.46056 -2.18191,0.25616 -2.18191,-0.45415 0,-0.71032 1.24173,-1.29149 2.7594,-1.29149 2.09896,0 2.65743,0.71802 2.33333,3 -0.4918,3.4628 -6.07706,4.81566 -8.76876,2.12397 z m -60.67389,-4.27624 c -0.72668,-1.77677 -1.96242,-2.30479 -4.33333,-1.85156 -1.82421,0.34872 -3.31675,0.22949 -3.31675,-0.26495 0,-1.52998 7.92657,-8.58244 8.7362,-7.7728 0.42022,0.42022 0.57647,3.37647 0.34725,6.56947 -0.30189,4.20504 -0.69703,5.12023 -1.43337,3.31984 z m 0.34992,-5.01099 c 0,-2.4028 -0.3114,-2.57149 -2.06311,-1.1177 -1.64786,1.36761 -1.71495,1.93309 -0.33333,2.80952 2.37905,1.50913 2.39644,1.49685 2.39644,-1.69182 z m 74.79711,2.63096 c -1.97738,-5.67229 -1.9402,-5.82258 1.86956,-7.55844 1.83333,-0.83532 3.33333,-1.0016 3.33333,-0.36952 0,0.63208 -1.26037,1.47883 -2.80083,1.88167 -1.68561,0.4408 -2.42204,1.34531 -1.84952,2.27167 0.52322,0.84657 2.23359,1.2168 3.80083,0.82272 2.61455,-0.65742 2.65711,-0.57242 0.51619,1.03084 -3.63572,2.72264 -2.89675,4.96041 1.33333,4.03758 2.82341,-0.61594 3.20671,-0.47317 1.66667,0.62084 -3.60108,2.55815 -6.35782,1.59924 -7.86956,-2.73736 z m 12.8237,-5.00676 c -3.45004,-5.84045 -2.90618,-6.91672 2.37919,-4.70834 5.0136,2.09481 5.42513,1.82262 3.28643,-2.17359 -0.75914,-1.41845 -0.87027,-2.57901 -0.24696,-2.57901 0.98882,0 5.6272,8.30829 5.6272,10.07948 0,0.36061 -1.7702,-0.25975 -3.93379,-1.37858 -5.84379,-3.02193 -7.41184,-2.6024 -4.85549,1.2991 1.20125,1.83333 1.69962,3.33333 1.10749,3.33333 -0.59212,0 -2.10596,-1.74257 -3.36407,-3.87239 z M 112,273.41203 c 0,-2.89005 0.63827,-5.64912 1.41837,-6.13125 0.96402,-0.59579 1.1216,0.70533 0.49194,4.06173 -0.88034,4.6926 -0.78874,4.86466 1.8407,3.45742 1.52192,-0.81451 3.13596,-2.07771 3.58675,-2.8071 0.45079,-0.72938 1.53421,-1.30177 2.40759,-1.27197 1.7002,0.058 -6.9313,7.94581 -8.69499,7.94581 -0.5777,0 -1.05036,-2.36458 -1.05036,-5.25464 z m -9.33334,-1.76512 c 0,-2.60505 -3.803623,-4.88733 -6.666662,-4.00016 -1.1,0.34086 0.218168,-0.94021 2.929261,-2.84684 6.865311,-4.82813 8.230321,-4.53396 7.115371,1.53343 -0.98429,5.35635 -3.37797,9.12163 -3.37797,5.31357 z m 1.87247,-5.79536 c 0.60343,-1.57249 0.25499,-1.92993 -1.29973,-1.33333 -1.16829,0.44832 -2.41051,0.81512 -2.76047,0.81512 -0.34997,0 -0.26549,0.6 0.18773,1.33333 1.22304,1.97892 2.9389,1.61775 3.87247,-0.81512 z m 129.30399,2.24194 c -1.8126,-3.0685 -3.09491,-3.9039 -5.12991,-3.34207 -2.33803,0.64549 -2.25227,0.37287 0.62012,-1.97152 3.50316,-2.85921 6.95127,-3.8645 4.35707,-1.27029 -1.12391,1.1239 -0.79042,2.48233 1.30529,5.31693 1.54819,2.09404 2.46596,4.15625 2.03951,4.58271 -0.42646,0.42646 -1.8629,-1.06563 -3.19208,-3.31576 z m 7.56832,-7.63036 c -1.53018,-1.9453 -2.47372,-3.8453 -2.09678,-4.22223 0.37694,-0.37694 0.83534,-0.43534 1.01867,-0.12974 0.18333,0.30556 1.78792,2.20556 3.56575,4.22223 1.77783,2.01667 2.57138,3.66667 1.76343,3.66667 -0.80793,0 -2.72091,-1.5916 -4.25107,-3.53688 z M 90.034813,257 l 0.935874,-5.66666 -3.485345,3.23241 c -1.916938,1.77784 -3.485344,2.64009 -3.485344,1.91613 0,-0.72397 1.8,-3.04081 4,-5.14854 l 4,-3.83224 v 5.78944 c 0,5.52425 0.11168,5.68836 2.438321,3.58278 4.208598,-3.80873 4.911944,-2.39942 0.895012,1.79335 -5.200361,5.42802 -6.407523,5.0483 -5.298518,-1.66667 z m 157.298517,-2.33333 -3.83224,-4 h 5.87946 c 5.70155,0 5.78979,-0.0628 2.91612,-2.0756 -1.62984,-1.14159 -2.96334,-2.67212 -2.96334,-3.4012 0,-0.72907 2.09416,0.27171 4.65368,2.22396 5.61208,4.28053 5.02842,6.01113 -1.67811,4.97585 l -4.97557,-0.76808 3.23241,3.52254 c 4.48819,4.891 1.48605,4.44755 -3.23241,-0.47747 z m 9.42857,-12.76191 c -2.67471,-2.6747 -2.63329,-3.61153 0.32085,-7.25976 2.80039,-3.45832 7.37527,-2.77188 9.63224,1.4453 3.19778,5.97512 -5.00214,10.76541 -9.95309,5.81446 z m 8.319,-2.81454 c 0.58009,-4.07468 -4.11279,-6.53452 -6.98567,-3.66164 -1.60589,1.60589 -1.76085,2.70488 -0.66905,4.74493 1.90631,3.56197 7.09801,2.82724 7.65472,-1.08329 z m -192.431633,-0.3503 c 1.457097,-1.63978 3.399598,-4.57709 4.31667,-6.52734 l 1.667403,-3.54591 -0.734698,4.2366 c -0.666548,3.84361 -0.386722,4.28888 3.016663,4.80023 3.527521,0.52998 3.487565,0.57554 -0.669628,0.7634 -2.431544,0.10986 -5.731544,0.88708 -7.333333,1.72712 l -2.912345,1.52734 z M 61.776885,205.77952 C 57.095702,204.8031 52.295918,199.38391 50.628839,193.19286 49.699352,189.741 49.266506,180.9757 49.551578,171.37788 50.217806,148.94726 53.509211,144 67.766061,144 c 10.654071,0 16.233937,6.63046 16.233937,19.29051 v 6.04283 h -6 -5.999999 v -5.74516 c 0,-6.67714 -2.441576,-10.7505 -6.02967,-10.0595 -3.472632,0.66878 -4.349678,4.83282 -4.50409,21.38452 -0.14521,15.56522 1.138056,21.0868 4.900758,21.0868 3.979768,0 5.633002,-2.8175 5.633002,-9.6 V 180 h 5.999999 6 l -0.07525,5.66667 c -0.103133,7.76525 -2.611099,14.28655 -6.591411,17.13917 -3.574998,2.56214 -10.856485,3.95402 -15.556446,2.97368 z M 104,175.41 v -30.07666 h 6.02551 6.0255 L 115.69217,175 l -0.35884,29.66667 -5.66667,0.41 -5.66666,0.41 z m 32.88889,29.03444 C 136.4,203.95556 136,190.41934 136,174.36396 v -29.1916 l 4.90032,0.41382 c 4.88573,0.4126 4.91848,0.45693 11,14.89673 L 158,174.96582 l 0.377,-14.81624 0.377,-14.81624 h 4.623 4.623 v 30.08448 30.08448 l -4.17551,-0.41782 c -4.02165,-0.40241 -4.40243,-1.0074 -10.33333,-16.41781 l -6.15783,-16 -0.37437,16.33333 -0.37438,16.33334 h -4.4034 c -2.42188,0 -4.80341,-0.4 -5.29229,-0.8889 z m 49.77777,-1.0054 c 0,-1.1262 2.7,-14.40657 6,-29.51194 3.3,-15.10538 6,-27.71844 6,-28.02904 0,-0.3106 2.55319,-0.56472 5.67376,-0.56472 h 5.67375 l 5.77243,27 c 3.17484,14.85 6.08669,28.35 6.47078,30 0.64536,2.7723 0.24006,3 -5.34024,3 -5.74498,0 -6.081,-0.2107 -6.91074,-4.33334 -1.69363,-8.4149 -2.07543,-9 -5.87279,-9 -3.33755,0 -3.80255,0.59979 -4.91015,6.33334 -1.2123,6.27554 -1.27517,6.33708 -6.89013,6.74333 -4.38471,0.31724 -5.66667,-0.0532 -5.66667,-1.63763 z m 19.92316,-23.77237 c -0.0423,-2.38333 -0.53328,-6.73333 -1.09114,-9.66667 l -1.01431,-5.33333 -0.98023,6 c -0.53912,3.3 -1.29577,7.65 -1.68145,9.66667 -0.58317,3.04929 -0.2344,3.66666 2.07136,3.66666 2.25495,0 2.75827,-0.80906 2.69577,-4.33333 z m 34.29907,24.77777 C 240.4,203.95556 240,190.39764 240,174.31574 v -29.23982 l 12.56171,0.46204 c 10.96956,0.40348 12.98138,0.85659 15.87279,3.57496 1.82109,1.7121 3.69384,5.15322 4.16167,7.64691 1.13792,6.06565 -1.32446,14.66516 -4.92042,17.18387 l -2.9144,2.04133 4.28599,13.07592 c 2.35729,7.19176 4.28599,13.79513 4.28599,14.67416 0,1.00327 -2.21447,1.59823 -5.94862,1.59823 -6.67116,0 -5.66312,1.7715 -10.81152,-19 -1.2269,-4.95 -2.75778,-9 -3.40196,-9 -0.64418,0 -1.17124,6.3 -1.17124,14 v 14 h -5.1111 c -2.81112,0 -5.51112,-0.4 -6,-0.8889 z m 18.30178,-37.22016 c 1.4872,-3.87558 0.8319,-10.87902 -1.1737,-12.54352 -3.86006,-3.20356 -6.01698,-0.59481 -6.01698,7.2774 0,6.89004 0.20988,7.37518 3.19068,7.37518 1.75488,0 3.55488,-0.94907 4,-2.10906 z m 46.45878,12.16614 -5.68388,-4.4724 5.01721,-3.90194 c 7.83077,-6.09005 7.90335,-6.09724 14.27199,-1.41169 3.28601,2.41759 5.99796,4.71721 6.02656,5.11028 0.0843,1.15793 -10.96787,9.29167 -12.52371,9.21675 -0.78336,-0.0377 -3.98204,-2.08118 -7.10817,-4.541 z m -40.08778,-59.52026 c -0.96054,-1.53807 -1.55488,-2.92967 -1.32073,-3.09244 4.0082,-2.78628 10.42572,-5.72059 10.42572,-4.76699 0,0.68977 -1.83053,2.20073 -4.06785,3.35769 -3.0883,1.59702 -3.86934,2.72901 -3.24348,4.70091 1.07097,3.37434 0.39088,3.29883 -1.79366,-0.19917 z M 64.807121,119.60092 c -3.279016,-2.39768 -2.446236,-9.40872 1.192878,-10.04264 2.570848,-0.44784 2.577614,-0.39717 0.188345,1.41006 -3.477039,2.63001 -2.329632,6.93499 1.982119,7.43674 2.662786,0.30987 3.699749,-0.31693 4.411666,-2.66666 0.596426,-1.96854 1.187017,-2.44546 1.644433,-1.32793 0.802686,1.96107 -3.147686,6.92285 -5.511707,6.92285 -0.84618,0 -2.604662,-0.77959 -3.907734,-1.73242 z m 196.817969,-7.77138 c 0.85704,-2.23342 -1.36664,-5.73888 -4.29176,-6.7656 -1.17503,-0.41244 0.39292,-1.36277 3.80125,-2.30394 3.19069,-0.88106 6.13711,-1.26608 6.54759,-0.8556 0.84848,0.84848 -3.707,9.91088 -5.57543,11.0914 -0.67463,0.42624 -0.89136,-0.0986 -0.48165,-1.16626 z m 3.70824,-6.57489 c 0,-0.69006 -0.9,-1.25465 -2,-1.25465 -2.06188,0 -2.64894,1.57329 -1.14736,3.07486 1.06524,1.06525 3.14736,-0.13891 3.14736,-1.82021 z M 72.761904,105.90476 C 71.609523,104.75238 70.666665,102.99524 70.666665,102 c 0,-0.99524 0.942858,-2.752379 2.095239,-3.904759 4.027218,-4.027221 9.904761,-1.710112 9.904761,3.904759 0,5.61488 -5.877543,7.93198 -9.904761,3.90476 z m 8.302437,-2.70172 c 0.53464,-3.723642 -3.236107,-6.834909 -6.096747,-5.030462 -3.120762,1.968522 -3.380413,3.890792 -0.865282,6.405932 2.869442,2.86944 6.454234,2.1612 6.962029,-1.37547 z m 170.935649,-2.69203 c 0,-1.723005 7.75552,-9.199928 8.63279,-8.322668 0.36333,0.36333 -1.43041,2.687289 -3.98609,5.164353 -2.55568,2.477063 -4.6467,3.898305 -4.6467,3.158315 z M 84.666665,93.333335 c -4.320184,-4.5093 -3.658175,-6.516888 1.390436,-4.216588 4.63612,2.112359 4.660034,2.092631 3.052711,-2.518141 -2.085364,-5.98208 -0.109303,-6.574063 4.223519,-1.265271 2.087156,2.557289 3.489344,4.953452 3.115975,5.324808 -0.373369,0.371356 -1.827205,-0.741279 -3.230748,-2.47252 -2.876743,-3.548407 -3.126443,-3.203735 -1.251561,1.727579 1.462661,3.847092 0.297138,4.349848 -4.387987,1.892788 -2.893594,-1.517512 -2.895944,-1.508875 -0.364964,1.341508 3.973148,4.474548 1.719014,4.638993 -2.547381,0.185837 z m 162.233365,0 c 0.0993,-5.360153 -0.12346,-5.751036 -2.26559,-3.973259 -3.87448,3.21554 -3.25367,0.426715 0.7613,-3.419865 3.23652,-3.100791 4.48653,-3.580775 6.31941,-2.426552 3.62588,2.283331 3.54354,5.660588 -0.17246,7.073409 -1.8249,0.693827 -3.62995,2.345575 -4.01123,3.670551 -0.48088,1.671107 -0.67429,1.38798 -0.63143,-0.924284 z m 5.09996,-5.921311 c 0,-1.056721 -0.55854,-2.266508 -1.2412,-2.688416 -1.58518,-0.979698 -3.17948,1.51704 -2.09213,3.276394 1.22608,1.983828 3.33333,1.612122 3.33333,-0.587978 z M 97.492485,81.000002 c -2.563392,-4.011011 -2.603764,-4.457305 -0.542763,-6.000001 4.936008,-3.694693 9.296418,0.308066 5.230188,4.801199 -1.65346,1.827058 -1.78188,2.730168 -0.56171,3.95034 1.08375,1.083751 1.11925,1.581795 0.11273,1.581795 -0.80798,0 -2.715284,-1.95 -4.238445,-4.333333 z m 3.174175,-5.000001 c -0.64509,-1.04379 -1.412087,-1.121241 -2.300975,-0.232353 -0.733334,0.733333 -0.897892,2.037892 -0.365687,2.89902 0.645099,1.043791 1.412092,1.121242 2.300982,0.232354 0.73333,-0.733334 0.89789,-2.037893 0.36568,-2.899021 z m 134.04795,7.619757 c -0.0264,-0.575802 0.90377,-2.499416 2.06699,-4.274699 1.1632,-1.775284 1.7278,-3.854174 1.25464,-4.619756 -1.19039,-1.926082 0.82037,-1.669038 3.63042,0.464093 2.54263,1.930128 3.25548,4.204571 0.8523,2.719315 -0.81458,-0.503434 -2.893,0.811156 -4.61872,2.921311 -1.72572,2.110156 -3.15926,3.365537 -3.18563,2.789736 z M 109.28999,73.929869 c -1.61013,-2.60524 -2.60331,-5.060997 -2.20706,-5.45724 0.39624,-0.396244 1.70809,1.189466 2.91522,3.523798 1.88261,3.640565 2.70258,4.119796 5.76498,3.36932 3.43581,-0.841987 3.46982,-0.797922 0.90353,1.170596 -3.72009,2.853565 -4.081,2.726043 -7.37667,-2.606474 z M 221.6,77.066668 c -2.74144,-2.741439 -1.74927,-4.281712 1.09817,-1.704821 1.83189,1.65784 3.13428,2.005701 4.05651,1.083474 0.92222,-0.922228 0.69806,-1.906309 -0.69818,-3.065088 -2.91876,-2.422361 -2.63312,-6.713565 0.44691,-6.713565 1.37687,0 3.25033,0.9 4.16325,2 1.0467,1.261181 1.13607,2 0.24195,2 -0.77984,0 -1.79477,-0.609787 -2.25539,-1.355083 -0.46061,-0.745294 -1.43512,-0.985729 -2.16554,-0.534296 -0.80119,0.495162 -0.436,1.806496 0.9205,3.305422 4.12563,4.558761 -1.44945,9.342689 -5.80818,4.983957 z m -100.8991,-7.66712 c -2.79006,-5.395391 -2.55328,-7.619463 0.90754,-8.524487 3.84437,-1.005328 4.77008,-0.05316 1.08531,1.116344 -3.78442,1.201128 -2.64151,4.108222 1.43018,3.637799 2.80036,-0.323539 2.91201,-0.187643 0.87607,1.066253 -3.65379,2.25029 -2.82846,4.372602 1.33333,3.428638 3.4829,-0.78998 3.53695,-0.7304 1.07849,1.188788 -3.59443,2.805989 -4.38736,2.579918 -6.71092,-1.913335 z m 88.18799,1.711564 c -1.63787,-1.637856 -0.91099,-7.907655 1.21996,-10.522937 2.07871,-2.551185 2.09485,-2.550062 1.12973,0.07849 -3.0724,8.367884 1.42292,14.059832 4.75358,6.018939 0.93505,-2.257444 2.0001,-3.804444 2.36677,-3.437778 0.36667,0.366667 -0.0869,2.485906 -1.00789,4.709419 -1.59962,3.861804 -6.08318,5.53284 -8.46215,3.153864 z M 135.0975,67.062123 c 2.02688,-0.524091 2.3046,-1.550863 1.67122,-6.178666 -0.54319,-3.968719 -0.40772,-4.790305 0.47544,-2.883456 0.67929,1.466667 1.27725,4.316667 1.32878,6.333334 0.0763,2.984665 -0.46428,3.637898 -2.90628,3.511998 -2.40541,-0.124013 -2.51821,-0.279244 -0.56916,-0.78321 z m 57.52454,-5.395455 c 1.21796,-6.62797 2.54614,-7.807042 6.67512,-5.925751 2.19525,1.000219 3.3695,2.613931 3.3695,4.630499 0,4.163695 -2.39785,6.295252 -7.08172,6.295252 -3.76,0 -3.8529,-0.156788 -2.9629,-5 z m 8.4423,0.21666 c 0.45211,-3.164286 -3.24044,-6.964859 -4.9487,-5.093484 -0.60758,0.665586 -1.50412,2.90213 -1.99231,4.970097 -0.82583,3.498188 -0.62897,3.730242 2.82785,3.333334 2.57626,-0.295803 3.83742,-1.280022 4.11316,-3.209947 z M 145.6,63.733335 c -2.05667,-2.056668 -2.05667,-6.743333 0,-8.800001 4.84441,-4.844414 12.43992,1.430348 9.15693,7.564677 -1.66785,3.116413 -6.60923,3.783033 -9.15693,1.235324 z m 7.55402,-2.032236 c 1.69286,-3.024973 -0.46037,-7.034431 -3.77776,-7.034431 -3.12236,0 -4.83584,4.771364 -2.65649,7.397317 2.15521,2.596878 4.86336,2.44414 6.43425,-0.362886 z m 16.56066,-3.701098 c 0.0107,-3.666667 0.26896,-5.008417 0.57542,-2.981667 0.30648,2.02675 0.29828,5.02675 -0.0181,6.666667 -0.31655,1.639916 -0.56729,-0.01833 -0.55729,-3.685 z m 7.40997,0 c 0.26245,-3.3 0.88741,-6 1.3888,-6 0.50137,0 2.09096,1.95 3.5324,4.333333 l 2.62081,4.333334 0.4219,-3.666667 c 0.66976,-5.820849 2.371,-4.251403 1.80662,1.666667 -0.6166,6.465697 -2.05744,6.743264 -5.19097,1 l -2.36428,-4.333334 -0.42111,4.333334 c -0.65001,6.688681 -2.33426,5.124116 -1.79417,-1.666667 z"
         id="path847"
         inkscape:connector-curvature="0" />
      <path
         style="fill:#2c87c4;stroke-width:1.33333337"
         d="M 146,340.62577 C 85.781776,331.45261 34.677405,290.9477 13.154291,235.33334 3.9561679,211.56596 2.23328,201.87915 2.1270372,173.33334 2.0231562,145.42212 3.7910981,134.1859 11.519436,113.63958 29.089787,66.927601 66.832673,29.516694 113.33333,12.721222 138.46234,3.644927 171.2655,0.4065649 196.31578,4.5291073 245.5819,12.636868 289.43545,41.344381 315.1289,82.306839 c 4.29948,6.854561 4.34376,7.592676 0.55691,9.282421 -2.72538,1.216091 -3.54462,0.462142 -9.55804,-8.796248 C 297.47091,69.464755 274.13074,46.146528 260.71426,37.422213 232.22813,18.898578 204.51466,10.666667 170.6393,10.666667 c -27.34628,0 -49.37102,5.250937 -73.305969,17.476942 C 17.92633,68.704811 -14.086994,165.86708 25.874986,245.02376 c 8.244691,16.33109 18.057262,29.77494 31.409003,43.03234 30.699725,30.4828 70.169331,46.58928 114.208021,46.60521 53.248,0.0192 104.29101,-27.26878 134.06417,-71.67189 6.52157,-9.72616 7.35895,-10.49308 10.11048,-9.25984 1.65,0.73953 3,1.77592 3,2.3031 0,0.52718 -3.07368,5.6855 -6.8304,11.46291 -8.61233,13.24486 -31.86172,36.54388 -45.72143,45.81907 C 230.90541,336.87749 186.97129,346.86701 146,340.62577 Z m 2.66666,-14.10376 C 81.741188,316.87786 27.68081,262.99506 17.148084,195.43543 14.711406,179.80595 16.438436,148.4038 20.549938,133.58032 36.317269,76.733328 76.720809,36.707807 133.33333,21.852148 c 17.4146,-4.569753 44.87823,-5.720805 62.61453,-2.624289 42.25767,7.377607 80.5048,31.692698 103.29904,65.670947 6.61164,9.855641 7.18609,11.727244 3.97737,12.958544 -3.60177,1.382133 -4.00342,1.054353 -10.28656,-8.394598 C 272.12355,58.161154 236.23006,34.538302 198.65216,27.409895 184.88813,24.798903 156.84688,24.705964 143.66718,27.227655 58.550957,43.51308 5.0532472,130.04755 28.774059,213.07142 c 4.147916,14.51789 14.502204,35.57188 23.100093,46.97081 8.36904,11.09552 26.459969,28.4335 36.792513,35.2612 36.493675,24.11487 80.791915,31.11867 122.837705,19.42134 30.42955,-8.46566 61.92148,-30.90744 80.20394,-57.15497 3.74039,-5.36994 7.01343,-10.40169 7.27342,-11.18165 0.59306,-1.77923 6.3516,1.59657 6.3516,3.72348 0,0.80859 -3.00084,5.74321 -6.66855,10.96583 -33.75559,48.06621 -92.55796,73.72184 -149.99812,65.44455 z m 8.66667,-33.89715 c 0,-1.29612 5.36448,-11.29152 6.06009,-11.29152 0.67156,0 2.0625,3.25787 3.8784,9.08408 0.8901,2.85581 0.75526,2.95543 -1.82196,1.34593 -2.23708,-1.39708 -3.30645,-1.41136 -5.44986,-0.0728 -1.46667,0.91595 -2.66667,1.33638 -2.66667,0.93428 z m 7.02352,-6.07089 c -0.5526,-2.11315 -0.99719,-2.35286 -1.85475,-1 -1.64248,2.59108 -1.42037,3.77937 0.7064,3.77937 1.24408,0 1.63056,-0.9354 1.14835,-2.77937 z m 9.96735,4.1127 c -2.00286,-6.99478 -1.28464,-9.33333 2.86648,-9.33333 4.08258,0 6.59837,3.41095 4.24877,5.76055 -0.86396,0.86396 -0.81692,2.27306 0.13724,4.11038 1.34273,2.58555 1.19593,2.56047 -1.95272,-0.33364 l -3.4046,-3.12937 -0.47036,3.12937 -0.47036,3.12938 z M 180,284.56891 c 0,-1.24165 -0.90716,-1.92184 -2.22284,-1.66666 -3.34503,0.64873 -3.80434,3.76442 -0.55494,3.76442 1.63778,0 2.77778,-0.86092 2.77778,-2.09776 z m -41.09695,4.93874 c -1.98219,-1.25676 -0.91,-10.26728 1.39095,-11.68934 0.77568,-0.4794 1.03326,0.2177 0.6213,1.68139 -0.38704,1.37517 -1.06125,3.75419 -1.49824,5.28671 -0.58224,2.04196 0.0133,3.1756 2.22755,4.24309 1.8382,0.88605 2.23859,1.48404 1.02205,1.52652 -1.1,0.0384 -2.79362,-0.43336 -3.76361,-1.04837 z m 50.75425,-0.38367 c -2.1064,-2.1064 -2.13662,-6.77799 -0.0573,-8.85731 1.88653,-1.88653 5.92588,-2.1125 6.98981,-0.39101 0.41096,0.66495 -0.34554,0.92323 -1.68112,0.57397 -3.23457,-0.84586 -6.02513,2.69946 -4.90433,6.23079 1.00804,3.17604 6.03595,3.25219 7.07313,0.10707 0.42574,-1.29095 -0.0632,-1.61706 -1.56222,-1.04184 -1.20004,0.46056 -2.18191,0.25616 -2.18191,-0.45415 0,-0.71032 1.24173,-1.29149 2.7594,-1.29149 2.09896,0 2.65743,0.71802 2.33333,3 -0.4918,3.4628 -6.07706,4.81566 -8.76876,2.12397 z m -60.67389,-4.27624 c -0.72668,-1.77677 -1.96242,-2.30479 -4.33333,-1.85156 -1.82421,0.34872 -3.31675,0.22949 -3.31675,-0.26495 0,-1.52998 7.92657,-8.58244 8.7362,-7.7728 0.42022,0.42022 0.57647,3.37647 0.34725,6.56947 -0.30189,4.20504 -0.69703,5.12023 -1.43337,3.31984 z m 0.34992,-5.01099 c 0,-2.4028 -0.3114,-2.57149 -2.06311,-1.1177 -1.64786,1.36761 -1.71495,1.93309 -0.33333,2.80952 2.37905,1.50913 2.39644,1.49685 2.39644,-1.69182 z m 74.79711,2.63096 c -1.97738,-5.67229 -1.9402,-5.82258 1.86956,-7.55844 1.83333,-0.83532 3.33333,-1.0016 3.33333,-0.36952 0,0.63208 -1.26037,1.47883 -2.80083,1.88167 -1.68561,0.4408 -2.42204,1.34531 -1.84952,2.27167 0.52322,0.84657 2.23359,1.2168 3.80083,0.82272 2.61455,-0.65742 2.65711,-0.57242 0.51619,1.03084 -3.63572,2.72264 -2.89675,4.96041 1.33333,4.03758 2.82341,-0.61594 3.20671,-0.47317 1.66667,0.62084 -3.60108,2.55815 -6.35782,1.59924 -7.86956,-2.73736 z m 12.8237,-5.00676 c -3.45004,-5.84045 -2.90618,-6.91672 2.37919,-4.70834 5.0136,2.09481 5.42513,1.82262 3.28643,-2.17359 -0.75914,-1.41845 -0.87027,-2.57901 -0.24696,-2.57901 0.98882,0 5.6272,8.30829 5.6272,10.07948 0,0.36061 -1.7702,-0.25975 -3.93379,-1.37858 -5.84379,-3.02193 -7.41184,-2.6024 -4.85549,1.2991 1.20125,1.83333 1.69962,3.33333 1.10749,3.33333 -0.59212,0 -2.10596,-1.74257 -3.36407,-3.87239 z M 112,273.41203 c 0,-2.89005 0.63827,-5.64912 1.41837,-6.13125 0.96402,-0.59579 1.1216,0.70533 0.49194,4.06173 -0.88034,4.6926 -0.78874,4.86466 1.8407,3.45742 1.52192,-0.81451 3.13596,-2.07771 3.58675,-2.8071 0.45079,-0.72938 1.53421,-1.30177 2.40759,-1.27197 1.7002,0.058 -6.9313,7.94581 -8.69499,7.94581 -0.5777,0 -1.05036,-2.36458 -1.05036,-5.25464 z m -9.33334,-1.76512 c 0,-2.60505 -3.803623,-4.88733 -6.666662,-4.00016 -1.1,0.34086 0.218168,-0.94021 2.929261,-2.84684 6.865311,-4.82813 8.230321,-4.53396 7.115371,1.53343 -0.98429,5.35635 -3.37797,9.12163 -3.37797,5.31357 z m 1.87247,-5.79536 c 0.60343,-1.57249 0.25499,-1.92993 -1.29973,-1.33333 -1.16829,0.44832 -2.41051,0.81512 -2.76047,0.81512 -0.34997,0 -0.26549,0.6 0.18773,1.33333 1.22304,1.97892 2.9389,1.61775 3.87247,-0.81512 z m 129.30399,2.24194 c -1.8126,-3.0685 -3.09491,-3.9039 -5.12991,-3.34207 -2.33803,0.64549 -2.25227,0.37287 0.62012,-1.97152 3.50316,-2.85921 6.95127,-3.8645 4.35707,-1.27029 -1.12391,1.1239 -0.79042,2.48233 1.30529,5.31693 1.54819,2.09404 2.46596,4.15625 2.03951,4.58271 -0.42646,0.42646 -1.8629,-1.06563 -3.19208,-3.31576 z m 7.56832,-7.63036 c -1.53018,-1.9453 -2.47372,-3.8453 -2.09678,-4.22223 0.37694,-0.37694 0.83534,-0.43534 1.01867,-0.12974 0.18333,0.30556 1.78792,2.20556 3.56575,4.22223 1.77783,2.01667 2.57138,3.66667 1.76343,3.66667 -0.80793,0 -2.72091,-1.5916 -4.25107,-3.53688 z M 90.034813,257 l 0.935874,-5.66666 -3.485345,3.23241 c -1.916938,1.77784 -3.485344,2.64009 -3.485344,1.91613 0,-0.72397 1.8,-3.04081 4,-5.14854 l 4,-3.83224 v 5.78944 c 0,5.52425 0.11168,5.68836 2.438321,3.58278 4.208598,-3.80873 4.911944,-2.39942 0.895012,1.79335 -5.200361,5.42802 -6.407523,5.0483 -5.298518,-1.66667 z m 157.298517,-2.33333 -3.83224,-4 h 5.87946 c 5.70155,0 5.78979,-0.0628 2.91612,-2.0756 -1.62984,-1.14159 -2.96334,-2.67212 -2.96334,-3.4012 0,-0.72907 2.09416,0.27171 4.65368,2.22396 5.61208,4.28053 5.02842,6.01113 -1.67811,4.97585 l -4.97557,-0.76808 3.23241,3.52254 c 4.48819,4.891 1.48605,4.44755 -3.23241,-0.47747 z m 9.42857,-12.76191 c -2.67471,-2.6747 -2.63329,-3.61153 0.32085,-7.25976 2.80039,-3.45832 7.37527,-2.77188 9.63224,1.4453 3.19778,5.97512 -5.00214,10.76541 -9.95309,5.81446 z m 8.319,-2.81454 c 0.58009,-4.07468 -4.11279,-6.53452 -6.98567,-3.66164 -1.60589,1.60589 -1.76085,2.70488 -0.66905,4.74493 1.90631,3.56197 7.09801,2.82724 7.65472,-1.08329 z m -192.431633,-0.3503 c 1.457097,-1.63978 3.399598,-4.57709 4.31667,-6.52734 l 1.667403,-3.54591 -0.734698,4.2366 c -0.666548,3.84361 -0.386722,4.28888 3.016663,4.80023 3.527521,0.52998 3.487565,0.57554 -0.669628,0.7634 -2.431544,0.10986 -5.731544,0.88708 -7.333333,1.72712 l -2.912345,1.52734 z M 61.776885,205.77952 C 57.095702,204.8031 52.295918,199.38391 50.628839,193.19286 49.699352,189.741 49.266506,180.9757 49.551578,171.37788 50.217806,148.94726 53.509211,144 67.766061,144 c 10.654071,0 16.233937,6.63046 16.233937,19.29051 v 6.04283 h -6 -5.999999 v -5.74516 c 0,-6.67714 -2.441576,-10.7505 -6.02967,-10.0595 -3.472632,0.66878 -4.349678,4.83282 -4.50409,21.38452 -0.14521,15.56522 1.138056,21.0868 4.900758,21.0868 3.979768,0 5.633002,-2.8175 5.633002,-9.6 V 180 h 5.999999 6 l -0.07525,5.66667 c -0.103133,7.76525 -2.611099,14.28655 -6.591411,17.13917 -3.574998,2.56214 -10.856485,3.95402 -15.556446,2.97368 z M 104,175.41 v -30.07666 h 6.02551 6.0255 L 115.69217,175 l -0.35884,29.66667 -5.66667,0.41 -5.66666,0.41 z m 32.88889,29.03444 C 136.4,203.95556 136,190.41934 136,174.36396 v -29.1916 l 4.90032,0.41382 c 4.88573,0.4126 4.91848,0.45693 11,14.89673 L 158,174.96582 l 0.377,-14.81624 0.377,-14.81624 h 4.623 4.623 v 30.08448 30.08448 l -4.17551,-0.41782 c -4.02165,-0.40241 -4.40243,-1.0074 -10.33333,-16.41781 l -6.15783,-16 -0.37437,16.33333 -0.37438,16.33334 h -4.4034 c -2.42188,0 -4.80341,-0.4 -5.29229,-0.8889 z m 49.77777,-1.0054 c 0,-1.1262 2.7,-14.40657 6,-29.51194 3.3,-15.10538 6,-27.71844 6,-28.02904 0,-0.3106 2.55319,-0.56472 5.67376,-0.56472 h 5.67375 l 5.77243,27 c 3.17484,14.85 6.08669,28.35 6.47078,30 0.64536,2.7723 0.24006,3 -5.34024,3 -5.74498,0 -6.081,-0.2107 -6.91074,-4.33334 -1.69363,-8.4149 -2.07543,-9 -5.87279,-9 -3.33755,0 -3.80255,0.59979 -4.91015,6.33334 -1.2123,6.27554 -1.27517,6.33708 -6.89013,6.74333 -4.38471,0.31724 -5.66667,-0.0532 -5.66667,-1.63763 z m 19.92316,-23.77237 c -0.0423,-2.38333 -0.53328,-6.73333 -1.09114,-9.66667 l -1.01431,-5.33333 -0.98023,6 c -0.53912,3.3 -1.29577,7.65 -1.68145,9.66667 -0.58317,3.04929 -0.2344,3.66666 2.07136,3.66666 2.25495,0 2.75827,-0.80906 2.69577,-4.33333 z m 34.29907,24.77777 C 240.4,203.95556 240,190.39764 240,174.31574 v -29.23982 l 12.56171,0.46204 c 10.96956,0.40348 12.98138,0.85659 15.87279,3.57496 1.82109,1.7121 3.69384,5.15322 4.16167,7.64691 1.13792,6.06565 -1.32446,14.66516 -4.92042,17.18387 l -2.9144,2.04133 4.28599,13.07592 c 2.35729,7.19176 4.28599,13.79513 4.28599,14.67416 0,1.00327 -2.21447,1.59823 -5.94862,1.59823 -6.67116,0 -5.66312,1.7715 -10.81152,-19 -1.2269,-4.95 -2.75778,-9 -3.40196,-9 -0.64418,0 -1.17124,6.3 -1.17124,14 v 14 h -5.1111 c -2.81112,0 -5.51112,-0.4 -6,-0.8889 z m 18.30178,-37.22016 c 1.4872,-3.87558 0.8319,-10.87902 -1.1737,-12.54352 -3.86006,-3.20356 -6.01698,-0.59481 -6.01698,7.2774 0,6.89004 0.20988,7.37518 3.19068,7.37518 1.75488,0 3.55488,-0.94907 4,-2.10906 z m 46.45878,12.16614 -5.68388,-4.4724 5.01721,-3.90194 c 7.83077,-6.09005 7.90335,-6.09724 14.27199,-1.41169 3.28601,2.41759 5.99796,4.71721 6.02656,5.11028 0.0843,1.15793 -10.96787,9.29167 -12.52371,9.21675 -0.78336,-0.0377 -3.98204,-2.08118 -7.10817,-4.541 z m -40.08778,-59.52026 c -0.96054,-1.53807 -1.55488,-2.92967 -1.32073,-3.09244 4.0082,-2.78628 10.42572,-5.72059 10.42572,-4.76699 0,0.68977 -1.83053,2.20073 -4.06785,3.35769 -3.0883,1.59702 -3.86934,2.72901 -3.24348,4.70091 1.07097,3.37434 0.39088,3.29883 -1.79366,-0.19917 z M 64.807121,119.60092 c -3.279016,-2.39768 -2.446236,-9.40872 1.192878,-10.04264 2.570848,-0.44784 2.577614,-0.39717 0.188345,1.41006 -3.477039,2.63001 -2.329632,6.93499 1.982119,7.43674 2.662786,0.30987 3.699749,-0.31693 4.411666,-2.66666 0.596426,-1.96854 1.187017,-2.44546 1.644433,-1.32793 0.802686,1.96107 -3.147686,6.92285 -5.511707,6.92285 -0.84618,0 -2.604662,-0.77959 -3.907734,-1.73242 z m 196.817969,-7.77138 c 0.85704,-2.23342 -1.36664,-5.73888 -4.29176,-6.7656 -1.17503,-0.41244 0.39292,-1.36277 3.80125,-2.30394 3.19069,-0.88106 6.13711,-1.26608 6.54759,-0.8556 0.84848,0.84848 -3.707,9.91088 -5.57543,11.0914 -0.67463,0.42624 -0.89136,-0.0986 -0.48165,-1.16626 z m 3.70824,-6.57489 c 0,-0.69006 -0.9,-1.25465 -2,-1.25465 -2.06188,0 -2.64894,1.57329 -1.14736,3.07486 1.06524,1.06525 3.14736,-0.13891 3.14736,-1.82021 z M 72.761904,105.90476 C 71.609523,104.75238 70.666665,102.99524 70.666665,102 c 0,-0.99524 0.942858,-2.752379 2.095239,-3.904759 4.027218,-4.027221 9.904761,-1.710112 9.904761,3.904759 0,5.61488 -5.877543,7.93198 -9.904761,3.90476 z m 8.302437,-2.70172 c 0.53464,-3.723642 -3.236107,-6.834909 -6.096747,-5.030462 -3.120762,1.968522 -3.380413,3.890792 -0.865282,6.405932 2.869442,2.86944 6.454234,2.1612 6.962029,-1.37547 z m 170.935649,-2.69203 c 0,-1.723005 7.75552,-9.199928 8.63279,-8.322668 0.36333,0.36333 -1.43041,2.687289 -3.98609,5.164353 -2.55568,2.477063 -4.6467,3.898305 -4.6467,3.158315 z M 84.666665,93.333335 c -4.320184,-4.5093 -3.658175,-6.516888 1.390436,-4.216588 4.63612,2.112359 4.660034,2.092631 3.052711,-2.518141 -2.085364,-5.98208 -0.109303,-6.574063 4.223519,-1.265271 2.087156,2.557289 3.489344,4.953452 3.115975,5.324808 -0.373369,0.371356 -1.827205,-0.741279 -3.230748,-2.47252 -2.876743,-3.548407 -3.126443,-3.203735 -1.251561,1.727579 1.462661,3.847092 0.297138,4.349848 -4.387987,1.892788 -2.893594,-1.517512 -2.895944,-1.508875 -0.364964,1.341508 3.973148,4.474548 1.719014,4.638993 -2.547381,0.185837 z m 162.233365,0 c 0.0993,-5.360153 -0.12346,-5.751036 -2.26559,-3.973259 -3.87448,3.21554 -3.25367,0.426715 0.7613,-3.419865 3.23652,-3.100791 4.48653,-3.580775 6.31941,-2.426552 3.62588,2.283331 3.54354,5.660588 -0.17246,7.073409 -1.8249,0.693827 -3.62995,2.345575 -4.01123,3.670551 -0.48088,1.671107 -0.67429,1.38798 -0.63143,-0.924284 z m 5.09996,-5.921311 c 0,-1.056721 -0.55854,-2.266508 -1.2412,-2.688416 -1.58518,-0.979698 -3.17948,1.51704 -2.09213,3.276394 1.22608,1.983828 3.33333,1.612122 3.33333,-0.587978 z M 97.492485,81.000002 c -2.563392,-4.011011 -2.603764,-4.457305 -0.542763,-6.000001 4.936008,-3.694693 9.296418,0.308066 5.230188,4.801199 -1.65346,1.827058 -1.78188,2.730168 -0.56171,3.95034 1.08375,1.083751 1.11925,1.581795 0.11273,1.581795 -0.80798,0 -2.715284,-1.95 -4.238445,-4.333333 z m 3.174175,-5.000001 c -0.64509,-1.04379 -1.412087,-1.121241 -2.300975,-0.232353 -0.733334,0.733333 -0.897892,2.037892 -0.365687,2.89902 0.645099,1.043791 1.412092,1.121242 2.300982,0.232354 0.73333,-0.733334 0.89789,-2.037893 0.36568,-2.899021 z m 134.04795,7.619757 c -0.0264,-0.575802 0.90377,-2.499416 2.06699,-4.274699 1.1632,-1.775284 1.7278,-3.854174 1.25464,-4.619756 -1.19039,-1.926082 0.82037,-1.669038 3.63042,0.464093 2.54263,1.930128 3.25548,4.204571 0.8523,2.719315 -0.81458,-0.503434 -2.893,0.811156 -4.61872,2.921311 -1.72572,2.110156 -3.15926,3.365537 -3.18563,2.789736 z M 109.28999,73.929869 c -1.61013,-2.60524 -2.60331,-5.060997 -2.20706,-5.45724 0.39624,-0.396244 1.70809,1.189466 2.91522,3.523798 1.88261,3.640565 2.70258,4.119796 5.76498,3.36932 3.43581,-0.841987 3.46982,-0.797922 0.90353,1.170596 -3.72009,2.853565 -4.081,2.726043 -7.37667,-2.606474 z M 221.6,77.066668 c -2.74144,-2.741439 -1.74927,-4.281712 1.09817,-1.704821 1.83189,1.65784 3.13428,2.005701 4.05651,1.083474 0.92222,-0.922228 0.69806,-1.906309 -0.69818,-3.065088 -2.91876,-2.422361 -2.63312,-6.713565 0.44691,-6.713565 1.37687,0 3.25033,0.9 4.16325,2 1.0467,1.261181 1.13607,2 0.24195,2 -0.77984,0 -1.79477,-0.609787 -2.25539,-1.355083 -0.46061,-0.745294 -1.43512,-0.985729 -2.16554,-0.534296 -0.80119,0.495162 -0.436,1.806496 0.9205,3.305422 4.12563,4.558761 -1.44945,9.342689 -5.80818,4.983957 z m -100.8991,-7.66712 c -2.79006,-5.395391 -2.55328,-7.619463 0.90754,-8.524487 3.84437,-1.005328 4.77008,-0.05316 1.08531,1.116344 -3.78442,1.201128 -2.64151,4.108222 1.43018,3.637799 2.80036,-0.323539 2.91201,-0.187643 0.87607,1.066253 -3.65379,2.25029 -2.82846,4.372602 1.33333,3.428638 3.4829,-0.78998 3.53695,-0.7304 1.07849,1.188788 -3.59443,2.805989 -4.38736,2.579918 -6.71092,-1.913335 z m 88.18799,1.711564 c -1.63787,-1.637856 -0.91099,-7.907655 1.21996,-10.522937 2.07871,-2.551185 2.09485,-2.550062 1.12973,0.07849 -3.0724,8.367884 1.42292,14.059832 4.75358,6.018939 0.93505,-2.257444 2.0001,-3.804444 2.36677,-3.437778 0.36667,0.366667 -0.0869,2.485906 -1.00789,4.709419 -1.59962,3.861804 -6.08318,5.53284 -8.46215,3.153864 z M 135.0975,67.062123 c 2.02688,-0.524091 2.3046,-1.550863 1.67122,-6.178666 -0.54319,-3.968719 -0.40772,-4.790305 0.47544,-2.883456 0.67929,1.466667 1.27725,4.316667 1.32878,6.333334 0.0763,2.984665 -0.46428,3.637898 -2.90628,3.511998 -2.40541,-0.124013 -2.51821,-0.279244 -0.56916,-0.78321 z m 57.52454,-5.395455 c 1.21796,-6.62797 2.54614,-7.807042 6.67512,-5.925751 2.19525,1.000219 3.3695,2.613931 3.3695,4.630499 0,4.163695 -2.39785,6.295252 -7.08172,6.295252 -3.76,0 -3.8529,-0.156788 -2.9629,-5 z m 8.4423,0.21666 c 0.45211,-3.164286 -3.24044,-6.964859 -4.9487,-5.093484 -0.60758,0.665586 -1.50412,2.90213 -1.99231,4.970097 -0.82583,3.498188 -0.62897,3.730242 2.82785,3.333334 2.57626,-0.295803 3.83742,-1.280022 4.11316,-3.209947 z M 145.6,63.733335 c -2.05667,-2.056668 -2.05667,-6.743333 0,-8.800001 4.84441,-4.844414 12.43992,1.430348 9.15693,7.564677 -1.66785,3.116413 -6.60923,3.783033 -9.15693,1.235324 z m 7.55402,-2.032236 c 1.69286,-3.024973 -0.46037,-7.034431 -3.77776,-7.034431 -3.12236,0 -4.83584,4.771364 -2.65649,7.397317 2.15521,2.596878 4.86336,2.44414 6.43425,-0.362886 z m 16.56066,-3.701098 c 0.0107,-3.666667 0.26896,-5.008417 0.57542,-2.981667 0.30648,2.02675 0.29828,5.02675 -0.0181,6.666667 -0.31655,1.639916 -0.56729,-0.01833 -0.55729,-3.685 z m 7.40997,0 c 0.26245,-3.3 0.88741,-6 1.3888,-6 0.50137,0 2.09096,1.95 3.5324,4.333333 l 2.62081,4.333334 0.4219,-3.666667 c 0.66976,-5.820849 2.371,-4.251403 1.80662,1.666667 -0.6166,6.465697 -2.05744,6.743264 -5.19097,1 l -2.36428,-4.333334 -0.42111,4.333334 c -0.65001,6.688681 -2.33426,5.124116 -1.79417,-1.666667 z"
         id="path845"
         inkscape:connector-curvature="0" />
      <g
         id="g822">
        <path
           inkscape:connector-curvature="0"
           id="path843"
           d="M 150.7985,341.26994 C 118.74363,337.24895 86.904813,323.24078 61.542872,302.00001 -0.87847541,249.72178 -16.97876,159.26254 23.572982,88.666668 47.622712,46.798885 86.439778,18.05157 133.88826,6.9688809 146.43061,4.0393262 151.8945,3.5072589 170,3.4523637 c 23.52157,-0.071316 34.91097,1.7008015 56,8.7132453 32.94969,10.956307 66.31963,36.53398 85.81163,65.773613 6.55331,9.830513 6.89748,10.732177 4.70778,12.333333 -3.49116,2.5528 -3.93626,2.302597 -8.19351,-4.605887 C 277.44527,35.55487 215.46644,4.7963249 157.12396,10.628933 116.83623,14.656574 84.868565,29.673938 56.497576,57.899922 38.284585,76.019828 26.255802,94.61589 18.053326,117.33334 c -27.8110554,77.02506 5.983463,162.42648 79.06036,199.79179 15.404974,7.8768 34.117574,14.04286 49.361754,16.2654 17.30788,2.52342 48.47818,1.01574 64.19122,-3.10487 38.09385,-9.98979 73.47819,-34.82315 94.58915,-66.38439 7.75473,-11.59344 7.94869,-11.76604 10.69974,-9.52104 l 2.80184,2.28644 -7.00705,10.66667 c -9.04319,13.76619 -32.13193,36.89741 -45.75035,45.83452 -19.58784,12.85453 -41.89075,22.01857 -63.61878,26.14032 -13.84387,2.62613 -38.73876,3.57292 -51.58271,1.96176 z m -3.29302,-15.27183 C 112.52717,320.27557 82.76441,304.59022 58.539431,279.11187 28.859033,247.89586 14.54129,209.28248 16.383353,165.42155 18.03706,126.0455 33.673327,90.647784 61.715503,62.79768 93.04581,31.681965 133.64268,15.876235 177.33333,17.783758 227.169,19.95957 271.8797,44.902473 299.71039,86.054643 c 4.80234,7.101012 5.58246,9.054234 4.2551,10.653602 -2.74927,3.312665 -4.43398,2.242646 -9.95238,-6.321102 C 285.46798,77.126347 267.7525,59.533914 253.16465,49.822382 202.19576,15.891012 139.04986,16.062112 87.59233,50.271018 76.042137,57.949572 58.433847,75.165848 50.276826,86.755766 -6.5600489,167.51254 28.975042,278.93821 122.25068,312.44069 c 28.92625,10.38965 66.09146,10.55082 95.84408,0.41564 29.91722,-10.19126 58.7489,-32.13662 75.30538,-57.31905 6.03521,-9.17956 6.31395,-9.40828 9.82413,-8.06129 3.1845,1.222 2.70398,2.55727 -4.89094,13.59083 -21.55238,31.31029 -56.2508,54.50461 -94.33333,63.05752 -15.46276,3.47276 -41.45207,4.33476 -56.49452,1.87377 z m 9.82785,-33.37325 c 0,-1.29612 5.36448,-11.29152 6.06009,-11.29152 0.67156,0 2.0625,3.25787 3.8784,9.08408 0.8901,2.85581 0.75526,2.95543 -1.82196,1.34593 -2.23708,-1.39708 -3.30645,-1.41136 -5.44986,-0.0728 -1.46667,0.91595 -2.66667,1.33638 -2.66667,0.93428 z m 7.02352,-6.07089 c -0.5526,-2.11315 -0.99719,-2.35286 -1.85475,-1 -1.64248,2.59108 -1.42037,3.77937 0.7064,3.77937 1.24408,0 1.63056,-0.9354 1.14835,-2.77937 z m 9.96735,4.1127 c -2.00286,-6.99478 -1.28464,-9.33333 2.86648,-9.33333 4.08258,0 6.59837,3.41095 4.24877,5.76055 -0.86396,0.86396 -0.81692,2.27306 0.13724,4.11038 1.34273,2.58555 1.19593,2.56047 -1.95272,-0.33364 l -3.4046,-3.12937 -0.47036,3.12937 -0.47036,3.12938 z M 180,284.56891 c 0,-1.24165 -0.90716,-1.92184 -2.22284,-1.66666 -3.34503,0.64873 -3.80434,3.76442 -0.55494,3.76442 1.63778,0 2.77778,-0.86092 2.77778,-2.09776 z m -41.09695,4.93874 c -1.98219,-1.25676 -0.91,-10.26728 1.39095,-11.68934 0.77568,-0.4794 1.03326,0.2177 0.6213,1.68139 -0.38704,1.37517 -1.06125,3.75419 -1.49824,5.28671 -0.58224,2.04196 0.0133,3.1756 2.22755,4.24309 1.8382,0.88605 2.23859,1.48404 1.02205,1.52652 -1.1,0.0384 -2.79362,-0.43336 -3.76361,-1.04837 z m 50.75425,-0.38367 c -2.1064,-2.1064 -2.13662,-6.77799 -0.0573,-8.85731 1.88653,-1.88653 5.92588,-2.1125 6.98981,-0.39101 0.41096,0.66495 -0.34554,0.92323 -1.68112,0.57397 -3.23457,-0.84586 -6.02513,2.69946 -4.90433,6.23079 1.00804,3.17604 6.03595,3.25219 7.07313,0.10707 0.42574,-1.29095 -0.0632,-1.61706 -1.56222,-1.04184 -1.20004,0.46056 -2.18191,0.25616 -2.18191,-0.45415 0,-0.71032 1.24173,-1.29149 2.7594,-1.29149 2.09896,0 2.65743,0.71802 2.33333,3 -0.4918,3.4628 -6.07706,4.81566 -8.76876,2.12397 z m -60.67389,-4.27624 c -0.72668,-1.77677 -1.96242,-2.30479 -4.33333,-1.85156 -1.82421,0.34872 -3.31675,0.22949 -3.31675,-0.26495 0,-1.52998 7.92657,-8.58244 8.7362,-7.7728 0.42022,0.42022 0.57647,3.37647 0.34725,6.56947 -0.30189,4.20504 -0.69703,5.12023 -1.43337,3.31984 z m 0.34992,-5.01099 c 0,-2.4028 -0.3114,-2.57149 -2.06311,-1.1177 -1.64786,1.36761 -1.71495,1.93309 -0.33333,2.80952 2.37905,1.50913 2.39644,1.49685 2.39644,-1.69182 z m 74.79711,2.63096 c -1.97738,-5.67229 -1.9402,-5.82258 1.86956,-7.55844 1.83333,-0.83532 3.33333,-1.0016 3.33333,-0.36952 0,0.63208 -1.26037,1.47883 -2.80083,1.88167 -1.68561,0.4408 -2.42204,1.34531 -1.84952,2.27167 0.52322,0.84657 2.23359,1.2168 3.80083,0.82272 2.61455,-0.65742 2.65711,-0.57242 0.51619,1.03084 -3.63572,2.72264 -2.89675,4.96041 1.33333,4.03758 2.82341,-0.61594 3.20671,-0.47317 1.66667,0.62084 -3.60108,2.55815 -6.35782,1.59924 -7.86956,-2.73736 z m 12.8237,-5.00676 c -3.45004,-5.84045 -2.90618,-6.91672 2.37919,-4.70834 5.0136,2.09481 5.42513,1.82262 3.28643,-2.17359 -0.75914,-1.41845 -0.87027,-2.57901 -0.24696,-2.57901 0.98882,0 5.6272,8.30829 5.6272,10.07948 0,0.36061 -1.7702,-0.25975 -3.93379,-1.37858 -5.84379,-3.02193 -7.41184,-2.6024 -4.85549,1.2991 1.20125,1.83333 1.69962,3.33333 1.10749,3.33333 -0.59212,0 -2.10596,-1.74257 -3.36407,-3.87239 z M 112,273.41203 c 0,-2.89005 0.63827,-5.64912 1.41837,-6.13125 0.96402,-0.59579 1.1216,0.70533 0.49194,4.06173 -0.88034,4.6926 -0.78874,4.86466 1.8407,3.45742 1.52192,-0.81451 3.13596,-2.07771 3.58675,-2.8071 0.45079,-0.72938 1.53421,-1.30177 2.40759,-1.27197 1.7002,0.058 -6.9313,7.94581 -8.69499,7.94581 -0.5777,0 -1.05036,-2.36458 -1.05036,-5.25464 z m -9.33334,-1.76512 c 0,-2.60505 -3.803623,-4.88733 -6.666662,-4.00016 -1.1,0.34086 0.218168,-0.94021 2.929261,-2.84684 6.865311,-4.82813 8.230321,-4.53396 7.115371,1.53343 -0.98429,5.35635 -3.37797,9.12163 -3.37797,5.31357 z m 1.87247,-5.79536 c 0.60343,-1.57249 0.25499,-1.92993 -1.29973,-1.33333 -1.16829,0.44832 -2.41051,0.81512 -2.76047,0.81512 -0.34997,0 -0.26549,0.6 0.18773,1.33333 1.22304,1.97892 2.9389,1.61775 3.87247,-0.81512 z m 129.30399,2.24194 c -1.8126,-3.0685 -3.09491,-3.9039 -5.12991,-3.34207 -2.33803,0.64549 -2.25227,0.37287 0.62012,-1.97152 3.50316,-2.85921 6.95127,-3.8645 4.35707,-1.27029 -1.12391,1.1239 -0.79042,2.48233 1.30529,5.31693 1.54819,2.09404 2.46596,4.15625 2.03951,4.58271 -0.42646,0.42646 -1.8629,-1.06563 -3.19208,-3.31576 z m 7.56832,-7.63036 c -1.53018,-1.9453 -2.47372,-3.8453 -2.09678,-4.22223 0.37694,-0.37694 0.83534,-0.43534 1.01867,-0.12974 0.18333,0.30556 1.78792,2.20556 3.56575,4.22223 1.77783,2.01667 2.57138,3.66667 1.76343,3.66667 -0.80793,0 -2.72091,-1.5916 -4.25107,-3.53688 z M 90.034813,257 l 0.935874,-5.66666 -3.485345,3.23241 c -1.916938,1.77784 -3.485344,2.64009 -3.485344,1.91613 0,-0.72397 1.8,-3.04081 4,-5.14854 l 4,-3.83224 v 5.78944 c 0,5.52425 0.11168,5.68836 2.438321,3.58278 4.208598,-3.80873 4.911944,-2.39942 0.895012,1.79335 -5.200361,5.42802 -6.407523,5.0483 -5.298518,-1.66667 z m 157.298517,-2.33333 -3.83224,-4 h 5.87946 c 5.70155,0 5.78979,-0.0628 2.91612,-2.0756 -1.62984,-1.14159 -2.96334,-2.67212 -2.96334,-3.4012 0,-0.72907 2.09416,0.27171 4.65368,2.22396 5.61208,4.28053 5.02842,6.01113 -1.67811,4.97585 l -4.97557,-0.76808 3.23241,3.52254 c 4.48819,4.891 1.48605,4.44755 -3.23241,-0.47747 z m 9.42857,-12.76191 c -2.67471,-2.6747 -2.63329,-3.61153 0.32085,-7.25976 2.80039,-3.45832 7.37527,-2.77188 9.63224,1.4453 3.19778,5.97512 -5.00214,10.76541 -9.95309,5.81446 z m 8.319,-2.81454 c 0.58009,-4.07468 -4.11279,-6.53452 -6.98567,-3.66164 -1.60589,1.60589 -1.76085,2.70488 -0.66905,4.74493 1.90631,3.56197 7.09801,2.82724 7.65472,-1.08329 z m -192.431633,-0.3503 c 1.457097,-1.63978 3.399598,-4.57709 4.31667,-6.52734 l 1.667403,-3.54591 -0.734698,4.2366 c -0.666548,3.84361 -0.386722,4.28888 3.016663,4.80023 3.527521,0.52998 3.487565,0.57554 -0.669628,0.7634 -2.431544,0.10986 -5.731544,0.88708 -7.333333,1.72712 l -2.912345,1.52734 z M 61.776885,205.77952 C 57.095702,204.8031 52.295918,199.38391 50.628839,193.19286 49.699352,189.741 49.266506,180.9757 49.551578,171.37788 50.217806,148.94726 53.509211,144 67.766061,144 c 10.654071,0 16.233937,6.63046 16.233937,19.29051 v 6.04283 h -6 -5.999999 v -5.74516 c 0,-6.67714 -2.441576,-10.7505 -6.02967,-10.0595 -3.472632,0.66878 -4.349678,4.83282 -4.50409,21.38452 -0.14521,15.56522 1.138056,21.0868 4.900758,21.0868 3.979768,0 5.633002,-2.8175 5.633002,-9.6 V 180 h 5.999999 6 l -0.07525,5.66667 c -0.103133,7.76525 -2.611099,14.28655 -6.591411,17.13917 -3.574998,2.56214 -10.856485,3.95402 -15.556446,2.97368 z M 104,175.41 v -30.07666 h 6.02551 6.0255 L 115.69217,175 l -0.35884,29.66667 -5.66667,0.41 -5.66666,0.41 z m 32.88889,29.03444 C 136.4,203.95556 136,190.41934 136,174.36396 v -29.1916 l 4.90032,0.41382 c 4.88573,0.4126 4.91848,0.45693 11,14.89673 L 158,174.96582 l 0.377,-14.81624 0.377,-14.81624 h 4.623 4.623 v 30.08448 30.08448 l -4.17551,-0.41782 c -4.02165,-0.40241 -4.40243,-1.0074 -10.33333,-16.41781 l -6.15783,-16 -0.37437,16.33333 -0.37438,16.33334 h -4.4034 c -2.42188,0 -4.80341,-0.4 -5.29229,-0.8889 z m 49.77777,-1.0054 c 0,-1.1262 2.7,-14.40657 6,-29.51194 3.3,-15.10538 6,-27.71844 6,-28.02904 0,-0.3106 2.55319,-0.56472 5.67376,-0.56472 h 5.67375 l 5.77243,27 c 3.17484,14.85 6.08669,28.35 6.47078,30 0.64536,2.7723 0.24006,3 -5.34024,3 -5.74498,0 -6.081,-0.2107 -6.91074,-4.33334 -1.69363,-8.4149 -2.07543,-9 -5.87279,-9 -3.33755,0 -3.80255,0.59979 -4.91015,6.33334 -1.2123,6.27554 -1.27517,6.33708 -6.89013,6.74333 -4.38471,0.31724 -5.66667,-0.0532 -5.66667,-1.63763 z m 19.92316,-23.77237 c -0.0423,-2.38333 -0.53328,-6.73333 -1.09114,-9.66667 l -1.01431,-5.33333 -0.98023,6 c -0.53912,3.3 -1.29577,7.65 -1.68145,9.66667 -0.58317,3.04929 -0.2344,3.66666 2.07136,3.66666 2.25495,0 2.75827,-0.80906 2.69577,-4.33333 z m 34.29907,24.77777 C 240.4,203.95556 240,190.39764 240,174.31574 v -29.23982 l 12.56171,0.46204 c 10.96956,0.40348 12.98138,0.85659 15.87279,3.57496 1.82109,1.7121 3.69384,5.15322 4.16167,7.64691 1.13792,6.06565 -1.32446,14.66516 -4.92042,17.18387 l -2.9144,2.04133 4.28599,13.07592 c 2.35729,7.19176 4.28599,13.79513 4.28599,14.67416 0,1.00327 -2.21447,1.59823 -5.94862,1.59823 -6.67116,0 -5.66312,1.7715 -10.81152,-19 -1.2269,-4.95 -2.75778,-9 -3.40196,-9 -0.64418,0 -1.17124,6.3 -1.17124,14 v 14 h -5.1111 c -2.81112,0 -5.51112,-0.4 -6,-0.8889 z m 18.30178,-37.22016 c 1.4872,-3.87558 0.8319,-10.87902 -1.1737,-12.54352 -3.86006,-3.20356 -6.01698,-0.59481 -6.01698,7.2774 0,6.89004 0.20988,7.37518 3.19068,7.37518 1.75488,0 3.55488,-0.94907 4,-2.10906 z m 46.45878,12.16614 -5.68388,-4.4724 5.01721,-3.90194 c 7.83077,-6.09005 7.90335,-6.09724 14.27199,-1.41169 3.28601,2.41759 5.99796,4.71721 6.02656,5.11028 0.0843,1.15793 -10.96787,9.29167 -12.52371,9.21675 -0.78336,-0.0377 -3.98204,-2.08118 -7.10817,-4.541 z m -40.08778,-59.52026 c -0.96054,-1.53807 -1.55488,-2.92967 -1.32073,-3.09244 4.0082,-2.78628 10.42572,-5.72059 10.42572,-4.76699 0,0.68977 -1.83053,2.20073 -4.06785,3.35769 -3.0883,1.59702 -3.86934,2.72901 -3.24348,4.70091 1.07097,3.37434 0.39088,3.29883 -1.79366,-0.19917 z M 64.807121,119.60092 c -3.279016,-2.39768 -2.446236,-9.40872 1.192878,-10.04264 2.570848,-0.44784 2.577614,-0.39717 0.188345,1.41006 -3.477039,2.63001 -2.329632,6.93499 1.982119,7.43674 2.662786,0.30987 3.699749,-0.31693 4.411666,-2.66666 0.596426,-1.96854 1.187017,-2.44546 1.644433,-1.32793 0.802686,1.96107 -3.147686,6.92285 -5.511707,6.92285 -0.84618,0 -2.604662,-0.77959 -3.907734,-1.73242 z m 196.817969,-7.77138 c 0.85704,-2.23342 -1.36664,-5.73888 -4.29176,-6.7656 -1.17503,-0.41244 0.39292,-1.36277 3.80125,-2.30394 3.19069,-0.88106 6.13711,-1.26608 6.54759,-0.8556 0.84848,0.84848 -3.707,9.91088 -5.57543,11.0914 -0.67463,0.42624 -0.89136,-0.0986 -0.48165,-1.16626 z m 3.70824,-6.57489 c 0,-0.69006 -0.9,-1.25465 -2,-1.25465 -2.06188,0 -2.64894,1.57329 -1.14736,3.07486 1.06524,1.06525 3.14736,-0.13891 3.14736,-1.82021 z M 72.761904,105.90476 C 71.609523,104.75238 70.666665,102.99524 70.666665,102 c 0,-0.99524 0.942858,-2.752379 2.095239,-3.904759 4.027218,-4.027221 9.904761,-1.710112 9.904761,3.904759 0,5.61488 -5.877543,7.93198 -9.904761,3.90476 z m 8.302437,-2.70172 c 0.53464,-3.723642 -3.236107,-6.834909 -6.096747,-5.030462 -3.120762,1.968522 -3.380413,3.890792 -0.865282,6.405932 2.869442,2.86944 6.454234,2.1612 6.962029,-1.37547 z m 170.935649,-2.69203 c 0,-1.723005 7.75552,-9.199928 8.63279,-8.322668 0.36333,0.36333 -1.43041,2.687289 -3.98609,5.164353 -2.55568,2.477063 -4.6467,3.898305 -4.6467,3.158315 z M 84.666665,93.333335 c -4.320184,-4.5093 -3.658175,-6.516888 1.390436,-4.216588 4.63612,2.112359 4.660034,2.092631 3.052711,-2.518141 -2.085364,-5.98208 -0.109303,-6.574063 4.223519,-1.265271 2.087156,2.557289 3.489344,4.953452 3.115975,5.324808 -0.373369,0.371356 -1.827205,-0.741279 -3.230748,-2.47252 -2.876743,-3.548407 -3.126443,-3.203735 -1.251561,1.727579 1.462661,3.847092 0.297138,4.349848 -4.387987,1.892788 -2.893594,-1.517512 -2.895944,-1.508875 -0.364964,1.341508 3.973148,4.474548 1.719014,4.638993 -2.547381,0.185837 z m 162.233365,0 c 0.0993,-5.360153 -0.12346,-5.751036 -2.26559,-3.973259 -3.87448,3.21554 -3.25367,0.426715 0.7613,-3.419865 3.23652,-3.100791 4.48653,-3.580775 6.31941,-2.426552 3.62588,2.283331 3.54354,5.660588 -0.17246,7.073409 -1.8249,0.693827 -3.62995,2.345575 -4.01123,3.670551 -0.48088,1.671107 -0.67429,1.38798 -0.63143,-0.924284 z m 5.09996,-5.921311 c 0,-1.056721 -0.55854,-2.266508 -1.2412,-2.688416 -1.58518,-0.979698 -3.17948,1.51704 -2.09213,3.276394 1.22608,1.983828 3.33333,1.612122 3.33333,-0.587978 z M 97.492485,81.000002 c -2.563392,-4.011011 -2.603764,-4.457305 -0.542763,-6.000001 4.936008,-3.694693 9.296418,0.308066 5.230188,4.801199 -1.65346,1.827058 -1.78188,2.730168 -0.56171,3.95034 1.08375,1.083751 1.11925,1.581795 0.11273,1.581795 -0.80798,0 -2.715284,-1.95 -4.238445,-4.333333 z m 3.174175,-5.000001 c -0.64509,-1.04379 -1.412087,-1.121241 -2.300975,-0.232353 -0.733334,0.733333 -0.897892,2.037892 -0.365687,2.89902 0.645099,1.043791 1.412092,1.121242 2.300982,0.232354 0.73333,-0.733334 0.89789,-2.037893 0.36568,-2.899021 z m 134.04795,7.619757 c -0.0264,-0.575802 0.90377,-2.499416 2.06699,-4.274699 1.1632,-1.775284 1.7278,-3.854174 1.25464,-4.619756 -1.19039,-1.926082 0.82037,-1.669038 3.63042,0.464093 2.54263,1.930128 3.25548,4.204571 0.8523,2.719315 -0.81458,-0.503434 -2.893,0.811156 -4.61872,2.921311 -1.72572,2.110156 -3.15926,3.365537 -3.18563,2.789736 z M 109.28999,73.929869 c -1.61013,-2.60524 -2.60331,-5.060997 -2.20706,-5.45724 0.39624,-0.396244 1.70809,1.189466 2.91522,3.523798 1.88261,3.640565 2.70258,4.119796 5.76498,3.36932 3.43581,-0.841987 3.46982,-0.797922 0.90353,1.170596 -3.72009,2.853565 -4.081,2.726043 -7.37667,-2.606474 z M 221.6,77.066668 c -2.74144,-2.741439 -1.74927,-4.281712 1.09817,-1.704821 1.83189,1.65784 3.13428,2.005701 4.05651,1.083474 0.92222,-0.922228 0.69806,-1.906309 -0.69818,-3.065088 -2.91876,-2.422361 -2.63312,-6.713565 0.44691,-6.713565 1.37687,0 3.25033,0.9 4.16325,2 1.0467,1.261181 1.13607,2 0.24195,2 -0.77984,0 -1.79477,-0.609787 -2.25539,-1.355083 -0.46061,-0.745294 -1.43512,-0.985729 -2.16554,-0.534296 -0.80119,0.495162 -0.436,1.806496 0.9205,3.305422 4.12563,4.558761 -1.44945,9.342689 -5.80818,4.983957 z m -100.8991,-7.66712 c -2.79006,-5.395391 -2.55328,-7.619463 0.90754,-8.524487 3.84437,-1.005328 4.77008,-0.05316 1.08531,1.116344 -3.78442,1.201128 -2.64151,4.108222 1.43018,3.637799 2.80036,-0.323539 2.91201,-0.187643 0.87607,1.066253 -3.65379,2.25029 -2.82846,4.372602 1.33333,3.428638 3.4829,-0.78998 3.53695,-0.7304 1.07849,1.188788 -3.59443,2.805989 -4.38736,2.579918 -6.71092,-1.913335 z m 88.18799,1.711564 c -1.63787,-1.637856 -0.91099,-7.907655 1.21996,-10.522937 2.07871,-2.551185 2.09485,-2.550062 1.12973,0.07849 -3.0724,8.367884 1.42292,14.059832 4.75358,6.018939 0.93505,-2.257444 2.0001,-3.804444 2.36677,-3.437778 0.36667,0.366667 -0.0869,2.485906 -1.00789,4.709419 -1.59962,3.861804 -6.08318,5.53284 -8.46215,3.153864 z M 135.0975,67.062123 c 2.02688,-0.524091 2.3046,-1.550863 1.67122,-6.178666 -0.54319,-3.968719 -0.40772,-4.790305 0.47544,-2.883456 0.67929,1.466667 1.27725,4.316667 1.32878,6.333334 0.0763,2.984665 -0.46428,3.637898 -2.90628,3.511998 -2.40541,-0.124013 -2.51821,-0.279244 -0.56916,-0.78321 z m 57.52454,-5.395455 c 1.21796,-6.62797 2.54614,-7.807042 6.67512,-5.925751 2.19525,1.000219 3.3695,2.613931 3.3695,4.630499 0,4.163695 -2.39785,6.295252 -7.08172,6.295252 -3.76,0 -3.8529,-0.156788 -2.9629,-5 z m 8.4423,0.21666 c 0.45211,-3.164286 -3.24044,-6.964859 -4.9487,-5.093484 -0.60758,0.665586 -1.50412,2.90213 -1.99231,4.970097 -0.82583,3.498188 -0.62897,3.730242 2.82785,3.333334 2.57626,-0.295803 3.83742,-1.280022 4.11316,-3.209947 z M 145.6,63.733335 c -2.05667,-2.056668 -2.05667,-6.743333 0,-8.800001 4.84441,-4.844414 12.43992,1.430348 9.15693,7.564677 -1.66785,3.116413 -6.60923,3.783033 -9.15693,1.235324 z m 7.55402,-2.032236 c 1.69286,-3.024973 -0.46037,-7.034431 -3.77776,-7.034431 -3.12236,0 -4.83584,4.771364 -2.65649,7.397317 2.15521,2.596878 4.86336,2.44414 6.43425,-0.362886 z m 16.56066,-3.701098 c 0.0107,-3.666667 0.26896,-5.008417 0.57542,-2.981667 0.30648,2.02675 0.29828,5.02675 -0.0181,6.666667 -0.31655,1.639916 -0.56729,-0.01833 -0.55729,-3.685 z m 7.40997,0 c 0.26245,-3.3 0.88741,-6 1.3888,-6 0.50137,0 2.09096,1.95 3.5324,4.333333 l 2.62081,4.333334 0.4219,-3.666667 c 0.66976,-5.820849 2.371,-4.251403 1.80662,1.666667 -0.6166,6.465697 -2.05744,6.743264 -5.19097,1 l -2.36428,-4.333334 -0.42111,4.333334 c -0.65001,6.688681 -2.33426,5.124116 -1.79417,-1.666667 z"
           style="fill:#0370b8;stroke-width:1.33333337" />
      </g>
      <path
         style="fill:#5b5b5a;stroke-width:1.33333337"
         d="m 157.33333,292.62486 c 0,-1.29612 5.36448,-11.29152 6.06009,-11.29152 0.67156,0 2.0625,3.25787 3.8784,9.08408 0.8901,2.85581 0.75526,2.95543 -1.82196,1.34593 -2.23708,-1.39708 -3.30645,-1.41136 -5.44986,-0.0728 -1.46667,0.91595 -2.66667,1.33638 -2.66667,0.93428 z m 7.02352,-6.07089 c -0.5526,-2.11315 -0.99719,-2.35286 -1.85475,-1 -1.64248,2.59108 -1.42037,3.77937 0.7064,3.77937 1.24408,0 1.63056,-0.9354 1.14835,-2.77937 z m 9.96735,4.1127 c -2.00286,-6.99478 -1.28464,-9.33333 2.86648,-9.33333 4.08258,0 6.59837,3.41095 4.24877,5.76055 -0.86396,0.86396 -0.81692,2.27306 0.13724,4.11038 1.34273,2.58555 1.19593,2.56047 -1.95272,-0.33364 l -3.4046,-3.12937 -0.47036,3.12937 -0.47036,3.12938 z M 180,284.56891 c 0,-1.24165 -0.90716,-1.92184 -2.22284,-1.66666 -3.34503,0.64873 -3.80434,3.76442 -0.55494,3.76442 1.63778,0 2.77778,-0.86092 2.77778,-2.09776 z m -41.09695,4.93874 c -1.98219,-1.25676 -0.91,-10.26728 1.39095,-11.68934 0.77568,-0.4794 1.03326,0.2177 0.6213,1.68139 -0.38704,1.37517 -1.06125,3.75419 -1.49824,5.28671 -0.58224,2.04196 0.0133,3.1756 2.22755,4.24309 1.8382,0.88605 2.23859,1.48404 1.02205,1.52652 -1.1,0.0384 -2.79362,-0.43336 -3.76361,-1.04837 z m 50.75425,-0.38367 c -2.1064,-2.1064 -2.13662,-6.77799 -0.0573,-8.85731 1.88653,-1.88653 5.92588,-2.1125 6.98981,-0.39101 0.41096,0.66495 -0.34554,0.92323 -1.68112,0.57397 -3.23457,-0.84586 -6.02513,2.69946 -4.90433,6.23079 1.00804,3.17604 6.03595,3.25219 7.07313,0.10707 0.42574,-1.29095 -0.0632,-1.61706 -1.56222,-1.04184 -1.20004,0.46056 -2.18191,0.25616 -2.18191,-0.45415 0,-0.71032 1.24173,-1.29149 2.7594,-1.29149 2.09896,0 2.65743,0.71802 2.33333,3 -0.4918,3.4628 -6.07706,4.81566 -8.76876,2.12397 z m -60.67389,-4.27624 c -0.72668,-1.77677 -1.96242,-2.30479 -4.33333,-1.85156 -1.82421,0.34872 -3.31675,0.22949 -3.31675,-0.26495 0,-1.52998 7.92657,-8.58244 8.7362,-7.7728 0.42022,0.42022 0.57647,3.37647 0.34725,6.56947 -0.30189,4.20504 -0.69703,5.12023 -1.43337,3.31984 z m 0.34992,-5.01099 c 0,-2.4028 -0.3114,-2.57149 -2.06311,-1.1177 -1.64786,1.36761 -1.71495,1.93309 -0.33333,2.80952 2.37905,1.50913 2.39644,1.49685 2.39644,-1.69182 z m 74.79711,2.63096 c -1.97738,-5.67229 -1.9402,-5.82258 1.86956,-7.55844 1.83333,-0.83532 3.33333,-1.0016 3.33333,-0.36952 0,0.63208 -1.26037,1.47883 -2.80083,1.88167 -1.68561,0.4408 -2.42204,1.34531 -1.84952,2.27167 0.52322,0.84657 2.23359,1.2168 3.80083,0.82272 2.61455,-0.65742 2.65711,-0.57242 0.51619,1.03084 -3.63572,2.72264 -2.89675,4.96041 1.33333,4.03758 2.82341,-0.61594 3.20671,-0.47317 1.66667,0.62084 -3.60108,2.55815 -6.35782,1.59924 -7.86956,-2.73736 z m 12.8237,-5.00676 c -3.45004,-5.84045 -2.90618,-6.91672 2.37919,-4.70834 5.0136,2.09481 5.42513,1.82262 3.28643,-2.17359 -0.75914,-1.41845 -0.87027,-2.57901 -0.24696,-2.57901 0.98882,0 5.6272,8.30829 5.6272,10.07948 0,0.36061 -1.7702,-0.25975 -3.93379,-1.37858 -5.84379,-3.02193 -7.41184,-2.6024 -4.85549,1.2991 1.20125,1.83333 1.69962,3.33333 1.10749,3.33333 -0.59212,0 -2.10596,-1.74257 -3.36407,-3.87239 z M 112,273.41203 c 0,-2.89005 0.63827,-5.64912 1.41837,-6.13125 0.96402,-0.59579 1.1216,0.70533 0.49194,4.06173 -0.88034,4.6926 -0.78874,4.86466 1.8407,3.45742 1.52192,-0.81451 3.13596,-2.07771 3.58675,-2.8071 0.45079,-0.72938 1.53421,-1.30177 2.40759,-1.27197 1.7002,0.058 -6.9313,7.94581 -8.69499,7.94581 -0.5777,0 -1.05036,-2.36458 -1.05036,-5.25464 z m -9.33334,-1.76512 c 0,-2.60505 -3.803623,-4.88733 -6.666662,-4.00016 -1.1,0.34086 0.218168,-0.94021 2.929261,-2.84684 6.865311,-4.82813 8.230321,-4.53396 7.115371,1.53343 -0.98429,5.35635 -3.37797,9.12163 -3.37797,5.31357 z m 1.87247,-5.79536 c 0.60343,-1.57249 0.25499,-1.92993 -1.29973,-1.33333 -1.16829,0.44832 -2.41051,0.81512 -2.76047,0.81512 -0.34997,0 -0.26549,0.6 0.18773,1.33333 1.22304,1.97892 2.9389,1.61775 3.87247,-0.81512 z m 129.30399,2.24194 c -1.8126,-3.0685 -3.09491,-3.9039 -5.12991,-3.34207 -2.33803,0.64549 -2.25227,0.37287 0.62012,-1.97152 3.50316,-2.85921 6.95127,-3.8645 4.35707,-1.27029 -1.12391,1.1239 -0.79042,2.48233 1.30529,5.31693 1.54819,2.09404 2.46596,4.15625 2.03951,4.58271 -0.42646,0.42646 -1.8629,-1.06563 -3.19208,-3.31576 z m 7.56832,-7.63036 c -1.53018,-1.9453 -2.47372,-3.8453 -2.09678,-4.22223 0.37694,-0.37694 0.83534,-0.43534 1.01867,-0.12974 0.18333,0.30556 1.78792,2.20556 3.56575,4.22223 1.77783,2.01667 2.57138,3.66667 1.76343,3.66667 -0.80793,0 -2.72091,-1.5916 -4.25107,-3.53688 z M 90.034813,257 l 0.935874,-5.66666 -3.485345,3.23241 c -1.916938,1.77784 -3.485344,2.64009 -3.485344,1.91613 0,-0.72397 1.8,-3.04081 4,-5.14854 l 4,-3.83224 v 5.78944 c 0,5.52425 0.11168,5.68836 2.438321,3.58278 4.208598,-3.80873 4.911944,-2.39942 0.895012,1.79335 -5.200361,5.42802 -6.407523,5.0483 -5.298518,-1.66667 z m 157.298517,-2.33333 -3.83224,-4 h 5.87946 c 5.70155,0 5.78979,-0.0628 2.91612,-2.0756 -1.62984,-1.14159 -2.96334,-2.67212 -2.96334,-3.4012 0,-0.72907 2.09416,0.27171 4.65368,2.22396 5.61208,4.28053 5.02842,6.01113 -1.67811,4.97585 l -4.97557,-0.76808 3.23241,3.52254 c 4.48819,4.891 1.48605,4.44755 -3.23241,-0.47747 z m 9.42857,-12.76191 c -2.67471,-2.6747 -2.63329,-3.61153 0.32085,-7.25976 2.80039,-3.45832 7.37527,-2.77188 9.63224,1.4453 3.19778,5.97512 -5.00214,10.76541 -9.95309,5.81446 z m 8.319,-2.81454 c 0.58009,-4.07468 -4.11279,-6.53452 -6.98567,-3.66164 -1.60589,1.60589 -1.76085,2.70488 -0.66905,4.74493 1.90631,3.56197 7.09801,2.82724 7.65472,-1.08329 z m -192.431633,-0.3503 c 1.457097,-1.63978 3.399598,-4.57709 4.31667,-6.52734 l 1.667403,-3.54591 -0.734698,4.2366 c -0.666548,3.84361 -0.386722,4.28888 3.016663,4.80023 3.527521,0.52998 3.487565,0.57554 -0.669628,0.7634 -2.431544,0.10986 -5.731544,0.88708 -7.333333,1.72712 l -2.912345,1.52734 z M 61.776885,205.77952 C 57.095702,204.8031 52.295918,199.38391 50.628839,193.19286 49.699352,189.741 49.266506,180.9757 49.551578,171.37788 50.217806,148.94726 53.509211,144 67.766061,144 c 10.654071,0 16.233937,6.63046 16.233937,19.29051 v 6.04283 h -6 -5.999999 v -5.74516 c 0,-6.67714 -2.441576,-10.7505 -6.02967,-10.0595 -3.472632,0.66878 -4.349678,4.83282 -4.50409,21.38452 -0.14521,15.56522 1.138056,21.0868 4.900758,21.0868 3.979768,0 5.633002,-2.8175 5.633002,-9.6 V 180 h 5.999999 6 l -0.07525,5.66667 c -0.103133,7.76525 -2.611099,14.28655 -6.591411,17.13917 -3.574998,2.56214 -10.856485,3.95402 -15.556446,2.97368 z M 104,175.41 v -30.07666 h 6.02551 6.0255 L 115.69217,175 l -0.35884,29.66667 -5.66667,0.41 -5.66666,0.41 z m 32.88889,29.03444 C 136.4,203.95556 136,190.41934 136,174.36396 v -29.1916 l 4.90032,0.41382 c 4.88573,0.4126 4.91848,0.45693 11,14.89673 L 158,174.96582 l 0.377,-14.81624 0.377,-14.81624 h 4.623 4.623 v 30.08448 30.08448 l -4.17551,-0.41782 c -4.02165,-0.40241 -4.40243,-1.0074 -10.33333,-16.41781 l -6.15783,-16 -0.37437,16.33333 -0.37438,16.33334 h -4.4034 c -2.42188,0 -4.80341,-0.4 -5.29229,-0.8889 z m 49.77777,-1.0054 c 0,-1.1262 2.7,-14.40657 6,-29.51194 3.3,-15.10538 6,-27.71844 6,-28.02904 0,-0.3106 2.55319,-0.56472 5.67376,-0.56472 h 5.67375 l 5.77243,27 c 3.17484,14.85 6.08669,28.35 6.47078,30 0.64536,2.7723 0.24006,3 -5.34024,3 -5.74498,0 -6.081,-0.2107 -6.91074,-4.33334 -1.69363,-8.4149 -2.07543,-9 -5.87279,-9 -3.33755,0 -3.80255,0.59979 -4.91015,6.33334 -1.2123,6.27554 -1.27517,6.33708 -6.89013,6.74333 -4.38471,0.31724 -5.66667,-0.0532 -5.66667,-1.63763 z m 19.92316,-23.77237 c -0.0423,-2.38333 -0.53328,-6.73333 -1.09114,-9.66667 l -1.01431,-5.33333 -0.98023,6 c -0.53912,3.3 -1.29577,7.65 -1.68145,9.66667 -0.58317,3.04929 -0.2344,3.66666 2.07136,3.66666 2.25495,0 2.75827,-0.80906 2.69577,-4.33333 z m 34.29907,24.77777 C 240.4,203.95556 240,190.39764 240,174.31574 v -29.23982 l 12.56171,0.46204 c 10.96956,0.40348 12.98138,0.85659 15.87279,3.57496 1.82109,1.7121 3.69384,5.15322 4.16167,7.64691 1.13792,6.06565 -1.32446,14.66516 -4.92042,17.18387 l -2.9144,2.04133 4.28599,13.07592 c 2.35729,7.19176 4.28599,13.79513 4.28599,14.67416 0,1.00327 -2.21447,1.59823 -5.94862,1.59823 -6.67116,0 -5.66312,1.7715 -10.81152,-19 -1.2269,-4.95 -2.75778,-9 -3.40196,-9 -0.64418,0 -1.17124,6.3 -1.17124,14 v 14 h -5.1111 c -2.81112,0 -5.51112,-0.4 -6,-0.8889 z m 18.30178,-37.22016 c 1.4872,-3.87558 0.8319,-10.87902 -1.1737,-12.54352 -3.86006,-3.20356 -6.01698,-0.59481 -6.01698,7.2774 0,6.89004 0.20988,7.37518 3.19068,7.37518 1.75488,0 3.55488,-0.94907 4,-2.10906 z m 46.45878,12.16614 -5.68388,-4.4724 5.01721,-3.90194 c 7.83077,-6.09005 7.90335,-6.09724 14.27199,-1.41169 3.28601,2.41759 5.99796,4.71721 6.02656,5.11028 0.0843,1.15793 -10.96787,9.29167 -12.52371,9.21675 -0.78336,-0.0377 -3.98204,-2.08118 -7.10817,-4.541 z m -40.08778,-59.52026 c -0.96054,-1.53807 -1.55488,-2.92967 -1.32073,-3.09244 4.0082,-2.78628 10.42572,-5.72059 10.42572,-4.76699 0,0.68977 -1.83053,2.20073 -4.06785,3.35769 -3.0883,1.59702 -3.86934,2.72901 -3.24348,4.70091 1.07097,3.37434 0.39088,3.29883 -1.79366,-0.19917 z M 64.807121,119.60092 c -3.279016,-2.39768 -2.446236,-9.40872 1.192878,-10.04264 2.570848,-0.44784 2.577614,-0.39717 0.188345,1.41006 -3.477039,2.63001 -2.329632,6.93499 1.982119,7.43674 2.662786,0.30987 3.699749,-0.31693 4.411666,-2.66666 0.596426,-1.96854 1.187017,-2.44546 1.644433,-1.32793 0.802686,1.96107 -3.147686,6.92285 -5.511707,6.92285 -0.84618,0 -2.604662,-0.77959 -3.907734,-1.73242 z m 196.817969,-7.77138 c 0.85704,-2.23342 -1.36664,-5.73888 -4.29176,-6.7656 -1.17503,-0.41244 0.39292,-1.36277 3.80125,-2.30394 3.19069,-0.88106 6.13711,-1.26608 6.54759,-0.8556 0.84848,0.84848 -3.707,9.91088 -5.57543,11.0914 -0.67463,0.42624 -0.89136,-0.0986 -0.48165,-1.16626 z m 3.70824,-6.57489 c 0,-0.69006 -0.9,-1.25465 -2,-1.25465 -2.06188,0 -2.64894,1.57329 -1.14736,3.07486 1.06524,1.06525 3.14736,-0.13891 3.14736,-1.82021 z M 72.761904,105.90476 C 71.609523,104.75238 70.666665,102.99524 70.666665,102 c 0,-0.99524 0.942858,-2.752379 2.095239,-3.904759 4.027218,-4.027221 9.904761,-1.710112 9.904761,3.904759 0,5.61488 -5.877543,7.93198 -9.904761,3.90476 z m 8.302437,-2.70172 c 0.53464,-3.723642 -3.236107,-6.834909 -6.096747,-5.030462 -3.120762,1.968522 -3.380413,3.890792 -0.865282,6.405932 2.869442,2.86944 6.454234,2.1612 6.962029,-1.37547 z m 170.935649,-2.69203 c 0,-1.723005 7.75552,-9.199928 8.63279,-8.322668 0.36333,0.36333 -1.43041,2.687289 -3.98609,5.164353 -2.55568,2.477063 -4.6467,3.898305 -4.6467,3.158315 z M 84.666665,93.333335 c -4.320184,-4.5093 -3.658175,-6.516888 1.390436,-4.216588 4.63612,2.112359 4.660034,2.092631 3.052711,-2.518141 -2.085364,-5.98208 -0.109303,-6.574063 4.223519,-1.265271 2.087156,2.557289 3.489344,4.953452 3.115975,5.324808 -0.373369,0.371356 -1.827205,-0.741279 -3.230748,-2.47252 -2.876743,-3.548407 -3.126443,-3.203735 -1.251561,1.727579 1.462661,3.847092 0.297138,4.349848 -4.387987,1.892788 -2.893594,-1.517512 -2.895944,-1.508875 -0.364964,1.341508 3.973148,4.474548 1.719014,4.638993 -2.547381,0.185837 z m 162.233365,0 c 0.0993,-5.360153 -0.12346,-5.751036 -2.26559,-3.973259 -3.87448,3.21554 -3.25367,0.426715 0.7613,-3.419865 3.23652,-3.100791 4.48653,-3.580775 6.31941,-2.426552 3.62588,2.283331 3.54354,5.660588 -0.17246,7.073409 -1.8249,0.693827 -3.62995,2.345575 -4.01123,3.670551 -0.48088,1.671107 -0.67429,1.38798 -0.63143,-0.924284 z m 5.09996,-5.921311 c 0,-1.056721 -0.55854,-2.266508 -1.2412,-2.688416 -1.58518,-0.979698 -3.17948,1.51704 -2.09213,3.276394 1.22608,1.983828 3.33333,1.612122 3.33333,-0.587978 z M 97.492485,81.000002 c -2.563392,-4.011011 -2.603764,-4.457305 -0.542763,-6.000001 4.936008,-3.694693 9.296418,0.308066 5.230188,4.801199 -1.65346,1.827058 -1.78188,2.730168 -0.56171,3.95034 1.08375,1.083751 1.11925,1.581795 0.11273,1.581795 -0.80798,0 -2.715284,-1.95 -4.238445,-4.333333 z m 3.174175,-5.000001 c -0.64509,-1.04379 -1.412087,-1.121241 -2.300975,-0.232353 -0.733334,0.733333 -0.897892,2.037892 -0.365687,2.89902 0.645099,1.043791 1.412092,1.121242 2.300982,0.232354 0.73333,-0.733334 0.89789,-2.037893 0.36568,-2.899021 z m 134.04795,7.619757 c -0.0264,-0.575802 0.90377,-2.499416 2.06699,-4.274699 1.1632,-1.775284 1.7278,-3.854174 1.25464,-4.619756 -1.19039,-1.926082 0.82037,-1.669038 3.63042,0.464093 2.54263,1.930128 3.25548,4.204571 0.8523,2.719315 -0.81458,-0.503434 -2.893,0.811156 -4.61872,2.921311 -1.72572,2.110156 -3.15926,3.365537 -3.18563,2.789736 z M 109.28999,73.929869 c -1.61013,-2.60524 -2.60331,-5.060997 -2.20706,-5.45724 0.39624,-0.396244 1.70809,1.189466 2.91522,3.523798 1.88261,3.640565 2.70258,4.119796 5.76498,3.36932 3.43581,-0.841987 3.46982,-0.797922 0.90353,1.170596 -3.72009,2.853565 -4.081,2.726043 -7.37667,-2.606474 z M 221.6,77.066668 c -2.74144,-2.741439 -1.74927,-4.281712 1.09817,-1.704821 1.83189,1.65784 3.13428,2.005701 4.05651,1.083474 0.92222,-0.922228 0.69806,-1.906309 -0.69818,-3.065088 -2.91876,-2.422361 -2.63312,-6.713565 0.44691,-6.713565 1.37687,0 3.25033,0.9 4.16325,2 1.0467,1.261181 1.13607,2 0.24195,2 -0.77984,0 -1.79477,-0.609787 -2.25539,-1.355083 -0.46061,-0.745294 -1.43512,-0.985729 -2.16554,-0.534296 -0.80119,0.495162 -0.436,1.806496 0.9205,3.305422 4.12563,4.558761 -1.44945,9.342689 -5.80818,4.983957 z m -100.8991,-7.66712 c -2.79006,-5.395391 -2.55328,-7.619463 0.90754,-8.524487 3.84437,-1.005328 4.77008,-0.05316 1.08531,1.116344 -3.78442,1.201128 -2.64151,4.108222 1.43018,3.637799 2.80036,-0.323539 2.91201,-0.187643 0.87607,1.066253 -3.65379,2.25029 -2.82846,4.372602 1.33333,3.428638 3.4829,-0.78998 3.53695,-0.7304 1.07849,1.188788 -3.59443,2.805989 -4.38736,2.579918 -6.71092,-1.913335 z m 88.18799,1.711564 c -1.63787,-1.637856 -0.91099,-7.907655 1.21996,-10.522937 2.07871,-2.551185 2.09485,-2.550062 1.12973,0.07849 -3.0724,8.367884 1.42292,14.059832 4.75358,6.018939 0.93505,-2.257444 2.0001,-3.804444 2.36677,-3.437778 0.36667,0.366667 -0.0869,2.485906 -1.00789,4.709419 -1.59962,3.861804 -6.08318,5.53284 -8.46215,3.153864 z M 135.0975,67.062123 c 2.02688,-0.524091 2.3046,-1.550863 1.67122,-6.178666 -0.54319,-3.968719 -0.40772,-4.790305 0.47544,-2.883456 0.67929,1.466667 1.27725,4.316667 1.32878,6.333334 0.0763,2.984665 -0.46428,3.637898 -2.90628,3.511998 -2.40541,-0.124013 -2.51821,-0.279244 -0.56916,-0.78321 z m 57.52454,-5.395455 c 1.21796,-6.62797 2.54614,-7.807042 6.67512,-5.925751 2.19525,1.000219 3.3695,2.613931 3.3695,4.630499 0,4.163695 -2.39785,6.295252 -7.08172,6.295252 -3.76,0 -3.8529,-0.156788 -2.9629,-5 z m 8.4423,0.21666 c 0.45211,-3.164286 -3.24044,-6.964859 -4.9487,-5.093484 -0.60758,0.665586 -1.50412,2.90213 -1.99231,4.970097 -0.82583,3.498188 -0.62897,3.730242 2.82785,3.333334 2.57626,-0.295803 3.83742,-1.280022 4.11316,-3.209947 z M 145.6,63.733335 c -2.05667,-2.056668 -2.05667,-6.743333 0,-8.800001 4.84441,-4.844414 12.43992,1.430348 9.15693,7.564677 -1.66785,3.116413 -6.60923,3.783033 -9.15693,1.235324 z m 7.55402,-2.032236 c 1.69286,-3.024973 -0.46037,-7.034431 -3.77776,-7.034431 -3.12236,0 -4.83584,4.771364 -2.65649,7.397317 2.15521,2.596878 4.86336,2.44414 6.43425,-0.362886 z m 16.56066,-3.701098 c 0.0107,-3.666667 0.26896,-5.008417 0.57542,-2.981667 0.30648,2.02675 0.29828,5.02675 -0.0181,6.666667 -0.31655,1.639916 -0.56729,-0.01833 -0.55729,-3.685 z m 7.40997,0 c 0.26245,-3.3 0.88741,-6 1.3888,-6 0.50137,0 2.09096,1.95 3.5324,4.333333 l 2.62081,4.333334 0.4219,-3.666667 c 0.66976,-5.820849 2.371,-4.251403 1.80662,1.666667 -0.6166,6.465697 -2.05744,6.743264 -5.19097,1 l -2.36428,-4.333334 -0.42111,4.333334 c -0.65001,6.688681 -2.33426,5.124116 -1.79417,-1.666667 z"
         id="path841"
         inkscape:connector-curvature="0" />
      <path
         style="fill:#1d1d1b;stroke-width:1.33333337"
         d="m 158.5839,290.24358 c 0.7801,-2.06603 2.0903,-5.01197 2.91156,-6.54653 1.37772,-2.5743 1.59338,-2.61119 2.78778,-0.47691 0.71198,1.27227 0.93953,2.6682 0.50564,3.10209 C 164.355,286.75611 164,286.3757 164,285.47687 c 0,-0.89884 -0.6,-1.26342 -1.33334,-0.8102 -2.50768,1.54983 -1.50134,5.02163 1.24723,4.30286 2.44356,-0.63902 5.0708,2.49022 3.45083,4.1102 -0.38394,0.38393 -0.69806,-10e-4 -0.69806,-0.8575 0,-2.07316 -5.69213,-1.99225 -7.81721,0.11107 -1.35527,1.3414 -1.40708,0.93357 -0.26555,-2.08976 z m 20.53054,-0.3332 c -0.44103,-1.14929 -0.18191,-2.70957 0.57581,-3.46729 0.948,-0.948 1.31509,-0.29658 1.17704,2.08869 -0.23124,3.99533 -0.62875,4.30796 -1.75285,1.3786 z m 10.54286,-0.7864 c -1.81856,-1.81856 -2.24885,-7.26767 -0.65182,-8.25468 0.55301,-0.34179 1.00301,1.27281 1,3.58797 -0.005,3.60254 0.52314,4.27023 3.66118,4.6313 2.54144,0.29242 3.66667,-0.18495 3.66667,-1.55555 0,-1.0876 -0.75,-2.28009 -1.66667,-2.64997 -0.96196,-0.38816 -0.64086,-0.71703 0.7594,-0.77778 1.77548,-0.0771 2.31182,0.69924 2,2.89474 -0.4918,3.4628 -6.07706,4.81566 -8.76876,2.12397 z m -52.32397,-1.79064 c 0,-1.1 0.23581,-2 0.52401,-2 0.28822,0 0.86938,0.9 1.2915,2 0.4221,1.1 0.18629,2 -0.52402,2 -0.71032,0 -1.29149,-0.9 -1.29149,-2 z m -9.75588,-3.53367 c -2.05593,-2.2445 -2.76217,-2.37902 -4.66667,-0.88888 -1.23426,0.96574 -0.69251,-0.31132 1.20389,-2.83789 5.07607,-6.76285 6.55199,-6.65413 6.55199,0.48267 0,3.3611 -0.15,6.0611 -0.33333,6 -0.18333,-0.0611 -1.42348,-1.30127 -2.75588,-2.7559 z m 1.75588,-4.75205 c 0,-3.44693 -0.11096,-3.50805 -2.33333,-1.28511 -2.04071,2.04124 -2.08252,2.49254 -0.33334,3.59863 2.72104,1.72064 2.66667,1.76781 2.66667,-2.31352 z m 76,6.32756 c 0,-0.71031 0.9,-0.94612 2,-0.52401 1.1,0.42212 2,1.00328 2,1.29149 0,0.2882 -0.9,0.52401 -2,0.52401 -1.1,0 -2,-0.58117 -2,-1.29149 z m -31.97959,-1.70851 c -0.0219,-2.49326 5.82826,-3.40225 7.23607,-1.12434 0.41096,0.66494 -0.51504,0.8789 -2.05779,0.47546 -1.64418,-0.42996 -3.29182,0.0353 -3.98142,1.12435 -0.94019,1.48479 -1.18054,1.38929 -1.19686,-0.47547 z m -34.58181,-1.77777 c 0.064,-1.55327 0.37992,-1.8692 0.80555,-0.80556 0.38516,0.96249 0.3378,2.11249 -0.1052,2.55556 -0.44307,0.44305 -0.75819,-0.34445 -0.7003,-1.75 z m 64.50857,-2.05536 c -0.87521,-2.75753 1.0251,-5.15161 4.05283,-5.10591 0.73333,0.0107 0.25704,0.64642 -1.05844,1.41188 -1.57127,0.9143 -2.1122,2.27262 -1.57681,3.95946 0.44822,1.41224 0.51496,2.5677 0.14829,2.5677 -0.36667,0 -1.07131,-1.2749 -1.56587,-2.83313 z m 13.6467,-3.18361 c -2.47114,-5.18202 -1.50126,-5.70475 4.6667,-2.51518 3.78527,1.95744 4.05663,1.95744 3.26712,0 -2.23212,-5.53409 -2.12157,-6.38289 0.27804,-2.13474 3.05547,5.40926 2.02376,6.34788 -3.71534,3.38008 -4.43874,-2.29536 -4.85124,-1.95978 -2.64903,2.1551 0.79275,1.48127 1.20028,2.93428 0.90563,3.22894 -0.29464,0.29465 -1.53355,-1.55674 -2.75312,-4.1142 z m -23.84387,2.43926 c 0.96249,-0.38516 2.11249,-0.3378 2.55556,0.1052 0.44305,0.44306 -0.34445,0.75819 -1.75,0.7003 -1.55327,-0.064 -1.8692,-0.37992 -0.80556,-0.80555 z m -80.92558,-4.75585 0.15775,-4.33333 0.84225,3.78288 0.84225,3.78288 3.23242,-3.44955 c 1.77783,-1.89725 3.85516,-3.44955 4.6163,-3.44955 1.51896,0 -7.23221,7.85822 -8.84872,7.94582 -0.55,0.0297 -0.92901,-1.89582 -0.84225,-4.27915 z m -10.21444,-4.05868 c -0.71784,-1.61772 -2.348745,-2.85799 -3.624237,-2.75613 -3.263956,0.26064 -2.937283,-0.2523 2.171637,-3.40978 5.46505,-3.37758 6.20555,-3.4315 6.07069,-0.44208 -0.0621,1.37612 -0.37969,1.65398 -0.77423,0.67732 -0.49034,-1.21384 -1.36225,-1.28497 -3.26541,-0.26644 -2.865914,1.5338 -2.02897,4.53031 0.94644,3.38854 2.01217,-0.77215 2.4591,1.53514 0.80229,4.1419 -0.71125,1.11906 -1.41887,0.71363 -2.32718,-1.33333 z m 132.24455,-2.31568 c -1.28625,-2.17743 -2.97817,-3.95897 -3.75984,-3.95897 -0.9,0 -0.81248,-0.73348 0.23864,-2 0.91292,-1.1 2.33639,-1.99082 3.16326,-1.97959 0.85836,0.012 0.70722,0.5246 -0.35222,1.19548 -1.52421,0.96519 -1.31962,1.92779 1.14546,5.38968 1.6506,2.31804 2.75409,4.46163 2.4522,4.76351 -0.30188,0.30188 -1.60126,-1.23267 -2.8875,-3.41011 z m 7.72826,-8.29231 -3.91612,-4.33333 4.33333,3.91612 c 2.38333,2.15387 4.33333,4.10387 4.33333,4.33333 0,1.03008 -1.10017,0.1232 -4.75054,-3.91612 z m -152.509016,2 c 0.04057,-0.55 1.990574,-2.4616 4.333333,-4.248 l 4.259561,-3.24801 -3.916121,4.24801 c -4.074178,4.41946 -4.800401,4.92382 -4.676773,3.248 z m 157.926226,-7 -3.83224,-4 5.24945,0.19977 c 4.24016,0.16138 4.51817,0.30911 1.44597,0.76844 l -3.80348,0.56866 3.0359,3.23156 c 1.66974,1.77737 2.74357,3.23157 2.38628,3.23157 -0.35731,0 -2.37415,-1.8 -4.48188,-4 z M 87.333332,253.33515 c 2.2,-2.56033 4.149999,-4.90816 4.333333,-5.21737 0.183333,-0.30923 0.263732,1.48778 0.178665,3.99333 -0.08507,2.50556 -0.439379,3.452 -0.787357,2.10319 -0.588367,-2.28058 -0.881091,-2.23422 -4.178664,0.66182 -3.175459,2.78879 -3.128017,2.62778 0.454023,-1.54097 z m 164.751998,-5.74225 -3.24802,-4.25956 4.24802,3.91612 c 4.41945,4.07417 4.92381,4.8004 3.248,4.67677 -0.55,-0.0405 -2.4616,-1.99057 -4.248,-4.33333 z m 5.07792,-5.92623 c -1.59151,-2.02932 -1.56935,-2.13488 0.17008,-0.81015 1.1,0.83776 3.2,1.81816 4.66666,2.17867 2.53284,0.62259 2.52431,0.66324 -0.17008,0.81015 -1.5602,0.0851 -3.6602,-0.89534 -4.66666,-2.17867 z M 73.353305,238 c 1.822348,-2.2 3.558957,-4.3 3.859132,-4.66666 0.300176,-0.36667 0.183081,0.34665 -0.260209,1.58516 -0.605551,1.69184 0.08765,2.3882 2.787561,2.80022 2.971451,0.45346 2.774137,0.58298 -1.139791,0.74818 -2.603333,0.10986 -5.594345,0.94977 -6.646693,1.86644 C 70.900957,241.25 71.530957,240.2 73.353305,238 Z m 190.927445,-2.80114 c -0.94557,-1.02604 -1.13098,-1.86552 -0.41201,-1.86552 1.38459,0 3.38896,2.53628 2.59811,3.28756 -0.25678,0.24392 -1.24051,-0.396 -2.1861,-1.42204 z M 56.01465,201.66667 c -4.560796,-4.15227 -6.686564,-12.49213 -6.673595,-26.18199 0.02059,-21.73504 3.981264,-29.87653 15.146578,-31.13502 11.789165,-1.3288 17.532732,3.79918 19.102729,17.05536 L 84.371441,168 H 78.18572 71.999999 v -5.22428 c 0,-7.24542 -1.108071,-9.44238 -4.762407,-9.44238 -4.861319,0 -5.90426,3.81824 -5.90426,21.61566 0,12.73751 0.469177,17.1275 2.075605,19.42099 4.090776,5.8404 8.591062,1.75525 8.591062,-7.79856 V 180 h 5.999999 c 5.881867,0 5.999854,0.0853 5.992564,4.33334 -0.012,7.02086 -2.628748,14.43241 -6.295109,17.83028 -5.15779,4.78008 -16.163644,4.52784 -21.682803,-0.49695 z m 47.98535,-27 v -29.33333 h 5.33333 5.33333 V 174.66667 204 H 109.33333 104 Z m 33.33333,-0.0845 v -29.41782 l 4.0762,0.41782 c 3.82403,0.39196 4.46332,1.3252 10.33333,15.08448 L 158,175.33328 l 0.377,-15 0.377,-15 h 4.623 4.623 v 29.41782 29.41781 l -4.14579,-0.41781 c -3.95147,-0.39823 -4.4358,-1.13651 -10.33333,-15.75115 l -6.18755,-15.33328 -0.37565,15.66667 L 146.58204,204 h -4.62436 -4.62435 V 174.58219 Z M 187.09901,201 c 0.39679,-1.65 3.28116,-14.87866 6.40972,-29.39704 l 5.68829,-26.39704 5.33831,0.39704 5.33829,0.39704 6.14158,28.66667 6.14156,28.66667 -5.21716,0.41677 c -2.86943,0.22923 -5.50515,0.1288 -5.85715,-0.22321 -0.352,-0.352 -0.96855,-3.08955 -1.37012,-6.08344 C 209.02498,192.31894 208.72386,192 204.5728,192 c -4.20378,0 -4.45136,0.2798 -5.30916,6 l -0.89976,6 h -5.99315 c -5.53999,0 -5.9386,-0.22684 -5.27172,-3 z m 20.00423,-16.66666 c 0.32666,-0.55 -0.10974,-5.5 -0.96972,-11 -1.69476,-10.8383 -2.465,-10.04139 -4.18832,4.33333 -0.85667,7.14564 -0.73282,7.66667 1.82248,7.66667 1.50788,0 3.00888,-0.45 3.33556,-1 z m 34.23009,-9.66667 v -29.33333 h 10.06621 c 10.73116,0 16.81579,2.08632 19.2276,6.59281 3.36709,6.29149 0.4504,21.27425 -4.51219,23.17857 -1.66306,0.63818 -1.24004,2.96932 2.61736,14.42355 2.53056,7.51429 4.60102,13.84447 4.60102,14.06704 0,0.22259 -2.67688,0.40469 -5.94862,0.40469 -6.58833,0 -5.74533,1.3747 -10.2205,-16.66666 -2.22039,-8.95134 -2.63154,-10 -3.92074,-10 -0.68618,0 -1.24348,5.97561 -1.24348,13.33333 V 204 h -5.33333 -5.33333 z m 16.71485,-5.87036 c 1.80987,-1.3234 2.55788,-3.48763 2.55788,-7.40069 0,-5.67726 -1.814,-8.00286 -6.27273,-8.04187 -1.9579,-0.0172 -2.33334,1.23107 -2.33334,7.75736 0,9.90023 1.10272,11.30141 6.04819,7.6852 z m 48.88115,11.08835 c -3.0778,-2.26344 -5.596,-4.4473 -5.596,-4.85302 0,-0.73761 1.59054,-2.10553 8.17258,-7.02866 l 3.50594,-2.62231 6.21661,4.74673 6.21661,4.74675 -5.97588,4.56292 C 316.18245,181.94668 313.27551,184 313.00931,184 c -0.26618,0 -3.00218,-1.8519 -6.07998,-4.11534 z m -40.78668,-59.32704 c -0.44514,-1.15998 -0.80932,-2.53061 -0.80932,-3.04586 0,-1.06838 7.16321,-5.51433 8.87238,-5.50677 0.62019,0.003 -0.85862,1.21596 -3.28625,2.69604 -3.37032,2.05483 -4.21596,3.31457 -3.57681,5.32835 0.99226,3.12633 -0.0303,3.57645 -1.2,0.52824 z M 64.266665,118.4 c -2.298029,-2.29803 -1.971113,-5.79266 0.733334,-7.8391 1.985032,-1.50207 2.084546,-1.48663 0.666666,0.10341 -2.369924,2.65768 -2.061846,6.30635 0.666667,7.89557 1.283333,0.74747 1.703333,1.37728 0.933333,1.39958 -0.77,0.0223 -2.12,-0.67946 -3,-1.55946 z M 261.74151,112 c 0.81914,-2.90058 -1.46784,-6.6516 -4.12176,-6.76038 -1.90144,-0.0779 -1.83741,-0.28666 0.38024,-1.23962 1.46667,-0.63025 3.56667,-1.1459 4.66667,-1.1459 1.35345,0 1.20391,0.31327 -0.4626,0.96907 -2.18261,0.8589 -2.23108,1.16123 -0.42632,2.65905 1.68743,1.40044 2.2726,1.24839 3.41569,-0.88748 0.75867,-1.4176 1.00052,-2.95634 0.53743,-3.41943 -0.46309,-0.46309 -0.14197,-0.84197 0.71357,-0.84197 2.28316,0 1.92922,1.3933 -1.86292,7.33333 C 262.70887,111.6 261.43086,113.1 261.74151,112 Z M 73.227563,105.66667 c -1.502066,-1.98503 -1.48663,-2.08455 0.1034,-0.66667 2.657674,2.36993 6.30635,2.06185 7.895563,-0.66666 C 81.974,103.05 82.603814,102.63 82.626113,103.4 c 0.12732,4.39647 -6.565543,6.0106 -9.398557,2.26667 z m 8.105769,-5.3546 c 0,-2.387923 -5.261078,-3.355819 -7.730651,-1.422225 -2.042777,1.599425 -2.086649,1.543865 -0.439422,-0.55651 1.006458,-1.283333 2.541781,-2.333333 3.411826,-2.333333 2.459428,0 6.871919,3.664107 5.756151,4.779878 -0.548848,0.54884 -0.997904,0.33833 -0.997904,-0.46781 z M 251.99999,99.514919 c 0,-0.366666 1.8,-1.948378 4,-3.514917 2.2,-1.566539 4,-2.548251 4,-2.181584 0,0.366666 -1.8,1.948379 -4,3.514917 -2.2,1.566539 -4,2.548251 -4,2.181584 z M 84.91612,93.59371 c -3.784456,-3.95012 -4.445408,-5.593708 -2.249455,-5.593708 0.733333,0 1.333333,0.711329 1.333333,1.580732 0,0.869402 1.304588,2.969402 2.899086,4.666666 1.594497,1.697265 2.606752,3.085935 2.249454,3.085935 -0.357296,0 -2.261885,-1.68283 -4.232418,-3.739625 z m 161.85581,0.295181 c 0.064,-1.553257 0.37992,-1.8692 0.80554,-0.805556 0.38516,0.9625 0.3378,2.1125 -0.1052,2.555556 -0.44306,0.443055 -0.75818,-0.344445 -0.70029,-1.75 z M 89.55487,92.165136 c -1.431916,-0.90769 -1.366964,-1.285272 0.333333,-1.937737 1.336067,-0.512696 2.111795,-0.09108 2.111795,1.147783 0,2.266264 -0.07697,2.291129 -2.445128,0.789954 z M 243.7089,88.55701 c 2.56084,-4.807647 5.32893,-6.462099 7.62443,-4.557008 2.91882,2.422412 2.54449,6.666666 -0.58798,6.666666 -1.42338,0 -2.97681,-0.629134 -3.45204,-1.398077 -0.58065,-0.939509 -1.55272,-0.830176 -2.96365,0.333333 -1.84841,1.524279 -1.92266,1.399274 -0.62076,-1.044914 z m 8.29109,-1.144986 c 0,-1.056721 -0.65228,-2.324441 -1.4495,-2.817157 -1.8827,-1.163569 -4.45254,1.406263 -3.28896,3.288959 1.30694,2.114694 4.73846,1.773025 4.73846,-0.471802 z M 93.280953,87.270223 c -1.254475,-1.511549 -1.972072,-1.642681 -2.684162,-0.490496 -0.642076,1.0389 -1.28897,0.573709 -1.906103,-1.370703 -1.412646,-4.450853 -0.233196,-4.469118 3.989302,-0.06179 2.100404,2.192356 3.480129,3.986097 3.066056,3.986097 -0.414075,0 -1.523367,-0.9284 -2.465093,-2.063112 z m 4.485972,-6.448411 -2.899739,-4.478513 3.105936,-1.662247 c 5.082268,-2.719949 8.478218,1.62466 4.106128,5.253174 -1.05641,0.876742 -1.59221,2.450209 -1.19068,3.496593 1.22288,3.186776 -0.067,2.108683 -3.121645,-2.609007 z m 4.304875,-2.27132 c 1.37403,-2.223225 -1.71628,-4.77268 -3.555626,-2.933333 -1.538565,1.538565 -0.575628,4.382843 1.483824,4.382843 0.646772,0 1.579082,-0.65228 2.071802,-1.44951 z m 132.60149,5.375216 c -0.004,-0.407529 1.41327,-2.665524 3.14871,-5.017768 2.90317,-3.935036 3.30273,-4.095108 5,-2.003095 1.57809,1.945135 1.57192,2.109303 -0.0427,1.136023 -1.32119,-0.796405 -2.81909,0.02676 -4.99337,2.744055 -1.70832,2.13496 -3.10902,3.548313 -3.11266,3.140785 z m -125.39808,-10.7063 c -1.54273,-3.023997 -2.23889,-5.148327 -1.54703,-4.720732 0.69186,0.427593 2.0028,2.575708 2.91319,4.773588 1.3906,3.357207 2.05791,3.780649 4.17361,2.648363 1.38509,-0.74128 2.51835,-1.047783 2.51835,-0.681116 0,0.366666 -1.18196,1.299233 -2.62658,2.07237 -2.29259,1.226961 -2.98325,0.706579 -5.43154,-4.092473 z m 113.22137,3.233053 c -1.67097,-2.021885 -1.57461,-2.055221 1.10944,-0.383806 3.86622,2.407567 5.4648,0.657909 2.44631,-2.677486 -2.57365,-2.843862 -1.95277,-6.724501 1.07589,-6.724501 1.03323,0 2.70206,0.996393 3.70852,2.214207 1.67098,2.021885 1.57462,2.055221 -1.10944,0.383806 -3.96077,-2.46645 -5.10348,-0.920373 -2.38558,3.227667 3.50284,5.345995 -0.79598,8.859579 -4.84514,3.960113 z M 121.94517,71.911293 c -0.48338,-0.782122 -0.59291,-1.708 -0.2434,-2.057504 0.3495,-0.349505 0.99075,0.290414 1.425,1.422042 0.90158,2.349476 0.13313,2.762744 -1.1816,0.635462 z m 90.54863,-1.078741 c 1.37158,-0.539012 3.31564,-2.746841 4.3201,-4.906287 1.53218,-3.293902 1.69479,-3.3894 1.0097,-0.59293 -1.08952,4.447172 -3.01591,6.686857 -5.65352,6.572953 -1.75143,-0.07564 -1.68898,-0.282783 0.32372,-1.073736 z m -93.09039,-5.130709 c -0.88271,-2.300328 2.27195,-5.744947 5.18476,-5.661297 0.7765,0.02229 0.21183,0.710787 -1.25484,1.529973 -3.8633,2.15779 -3.87117,2.17486 -2.02674,4.397261 0.96026,1.157043 1.10352,2.032221 0.33265,2.032221 -0.74467,0 -1.75079,-1.03417 -2.23583,-2.298158 z m 17.26325,0.964825 c 0.45323,-0.733333 1.08864,-1.333333 1.41203,-1.333333 0.32339,0 0.58797,0.6 0.58797,1.333333 0,0.733333 -0.63541,1.333333 -1.41202,1.333333 -0.77662,0 -1.0412,-0.6 -0.58798,-1.333333 z m 56.22223,-0.888889 c -0.48889,-0.488888 -0.87971,-1.538888 -0.86848,-2.333334 0.0107,-0.794444 0.52909,-0.641949 1.15079,0.338879 0.6217,0.980828 2.56252,1.580828 4.31292,1.333333 3.65434,-0.516698 5.22145,-6.015299 2.2992,-8.067377 -1.42259,-0.998976 -1.37875,-1.143207 0.21668,-0.713016 2.56266,0.690994 3.35121,5.899011 1.27242,8.403793 -1.64365,1.980482 -6.80224,2.619016 -8.38353,1.037722 z m 15.15195,0.222222 c 0,-0.733333 0.58161,-2.233333 1.29249,-3.333333 0.71088,-1.1 1.29249,-1.4 1.29249,-0.666667 0,0.733334 -0.58161,2.233334 -1.29249,3.333334 -0.71088,1.1 -1.29249,1.4 -1.29249,0.666666 z m -61.9456,-2.761905 c -4.29243,-4.292423 -1.23539,-10.548732 4.72693,-9.67378 1.63292,0.239626 3.21163,1.335685 3.50823,2.435685 0.4302,1.595432 0.28596,1.639263 -0.71302,0.216677 -0.68876,-0.980828 -2.68444,-1.580828 -4.43484,-1.333333 -3.86869,0.547005 -4.94594,5.213259 -1.80529,7.819778 1.82463,1.514304 2.63579,1.514697 5.06435,0.0024 2.6354,-1.641039 2.72952,-1.60438 1.06181,0.413553 -2.29429,2.776089 -4.71223,2.814919 -7.40817,0.118973 z m 35.87462,-4.137136 -2.63653,-4.899043 -0.84225,3.899043 -0.84224,3.899041 -0.15776,-4.254644 c -0.22398,-6.040861 1.57078,-6.361316 4.55828,-0.813879 2.49725,4.637111 2.59248,4.680743 3.45972,1.58511 0.78694,-2.809072 0.9074,-2.673884 1.02468,1.15008 0.1738,5.666752 -1.30863,5.483 -4.5639,-0.565708 z m -12.27338,-1.767626 c 0,-3.3 0.26002,-4.65 0.57782,-3 0.31782,1.65 0.31782,4.35 0,6 -0.3178,1.650001 -0.57782,0.300001 -0.57782,-3 z m 23.74212,1.88889 c 0.064,-1.553258 0.37992,-1.8692 0.80554,-0.805556 0.38516,0.9625 0.3378,2.1125 -0.1052,2.555556 -0.44306,0.443055 -0.75818,-0.344445 -0.70029,-1.75 z M 136.10526,57.88889 c 0.064,-1.553257 0.37992,-1.8692 0.80555,-0.805556 0.38516,0.9625 0.3378,2.1125 -0.1052,2.555556 -0.44307,0.443055 -0.75819,-0.344445 -0.70029,-1.75 z"
         id="path839"
         inkscape:connector-curvature="0" />
    </g>
  </g>
</svg>
